%
M48
M72
T01C0.0276
T02C0.0320
T03C0.0394
T04C0.0400
T05C0.0440
T06C0.1102
%
T01
X5900Y4916
X5900Y6884
X9981Y11235
X9981Y12022
X9981Y12809
X9981Y13597
X9981Y14384
X9981Y15172
X9981Y15959
X9981Y16746
X9981Y17534
X9981Y18321
X1319Y18321
X1319Y17534
X1319Y16746
X1319Y15959
X1319Y15172
X1319Y14384
X1319Y13597
X1319Y12809
X1319Y12022
X1319Y11235
T02
X2650Y12650
X3650Y12650
X3650Y14150
X2650Y14150
X2650Y17150
X3650Y17150
X8650Y13400
X8650Y11400
X11150Y10900
X12150Y10900
X13150Y10900
X14150Y10900
X15150Y10900
X16150Y10900
X17150Y10900
X18150Y10900
X19150Y10900
X18650Y9900
X17650Y9900
X16650Y9900
X15650Y9900
X14650Y9900
X13650Y9900
X12650Y9900
X11650Y9900
X10650Y8150
X11650Y6900
X12650Y6900
X13650Y6900
X14650Y6900
X15650Y6900
X16650Y6900
X17650Y6900
X18650Y6900
X17650Y5400
X16650Y5400
X15650Y5400
X14650Y5400
X13650Y5400
X12650Y5400
X11650Y5400
X11650Y2400
X12650Y2400
X13650Y2400
X14650Y2400
X15650Y2400
X16650Y2400
X17650Y2400
X18900Y2900
X18900Y4900
X19150Y12400
X19150Y13400
X19150Y14400
X18150Y15400
X18150Y16400
X18150Y17400
X16150Y17400
X16150Y16400
X16150Y15400
X15150Y14400
X15150Y13400
X15150Y12400
X13150Y12400
X13150Y13400
X13150Y14400
X12150Y15400
X12150Y16400
X12150Y17400
X14150Y17400
X14150Y16400
X14150Y15400
X17150Y14400
X17150Y13400
X17150Y12400
X8150Y4150
X7400Y3650
X8150Y3150
X9650Y2400
X9650Y1400
X6650Y1400
X6650Y2400
X4650Y1400
X4650Y3400
X7650Y8150
X3650Y9650
X2650Y9650
T03
X2400Y4069
X2400Y2691
T04
X1510Y5370
X3290Y5370
X3290Y7930
X1510Y7930
X11150Y18400
X12150Y18400
X13150Y18400
X14150Y18400
X15150Y18400
X16150Y18400
X17150Y18400
X18150Y18400
X19150Y18400
T05
X9650Y6725
X9650Y3575
T06
X1650Y1595
X19400Y1595
M30
