G75*
G70*
%OFA0B0*%
%FSLAX24Y24*%
%IPPOS*%
%LPD*%
%AMOC8*
5,1,8,0,0,1.08239X$1,22.5*
%
%ADD10C,0.0160*%
%ADD11C,0.0000*%
%ADD12C,0.0520*%
%ADD13OC8,0.0520*%
%ADD14OC8,0.0700*%
%ADD15C,0.0700*%
%ADD16C,0.0476*%
%ADD17OC8,0.0660*%
%ADD18C,0.0760*%
%ADD19C,0.0560*%
%ADD20R,0.0560X0.0560*%
%ADD21C,0.0860*%
%ADD22C,0.0740*%
%ADD23C,0.0100*%
%ADD24C,0.0240*%
D10*
X000650Y000650D02*
X020335Y000650D01*
X020335Y019085D01*
X000650Y019085D01*
X000650Y000650D01*
D11*
X001099Y001595D02*
X001101Y001642D01*
X001107Y001688D01*
X001117Y001734D01*
X001130Y001779D01*
X001148Y001822D01*
X001169Y001864D01*
X001193Y001904D01*
X001221Y001941D01*
X001252Y001976D01*
X001286Y002009D01*
X001322Y002038D01*
X001361Y002064D01*
X001402Y002087D01*
X001445Y002106D01*
X001489Y002122D01*
X001534Y002134D01*
X001580Y002142D01*
X001627Y002146D01*
X001673Y002146D01*
X001720Y002142D01*
X001766Y002134D01*
X001811Y002122D01*
X001855Y002106D01*
X001898Y002087D01*
X001939Y002064D01*
X001978Y002038D01*
X002014Y002009D01*
X002048Y001976D01*
X002079Y001941D01*
X002107Y001904D01*
X002131Y001864D01*
X002152Y001822D01*
X002170Y001779D01*
X002183Y001734D01*
X002193Y001688D01*
X002199Y001642D01*
X002201Y001595D01*
X002199Y001548D01*
X002193Y001502D01*
X002183Y001456D01*
X002170Y001411D01*
X002152Y001368D01*
X002131Y001326D01*
X002107Y001286D01*
X002079Y001249D01*
X002048Y001214D01*
X002014Y001181D01*
X001978Y001152D01*
X001939Y001126D01*
X001898Y001103D01*
X001855Y001084D01*
X001811Y001068D01*
X001766Y001056D01*
X001720Y001048D01*
X001673Y001044D01*
X001627Y001044D01*
X001580Y001048D01*
X001534Y001056D01*
X001489Y001068D01*
X001445Y001084D01*
X001402Y001103D01*
X001361Y001126D01*
X001322Y001152D01*
X001286Y001181D01*
X001252Y001214D01*
X001221Y001249D01*
X001193Y001286D01*
X001169Y001326D01*
X001148Y001368D01*
X001130Y001411D01*
X001117Y001456D01*
X001107Y001502D01*
X001101Y001548D01*
X001099Y001595D01*
X018849Y001595D02*
X018851Y001642D01*
X018857Y001688D01*
X018867Y001734D01*
X018880Y001779D01*
X018898Y001822D01*
X018919Y001864D01*
X018943Y001904D01*
X018971Y001941D01*
X019002Y001976D01*
X019036Y002009D01*
X019072Y002038D01*
X019111Y002064D01*
X019152Y002087D01*
X019195Y002106D01*
X019239Y002122D01*
X019284Y002134D01*
X019330Y002142D01*
X019377Y002146D01*
X019423Y002146D01*
X019470Y002142D01*
X019516Y002134D01*
X019561Y002122D01*
X019605Y002106D01*
X019648Y002087D01*
X019689Y002064D01*
X019728Y002038D01*
X019764Y002009D01*
X019798Y001976D01*
X019829Y001941D01*
X019857Y001904D01*
X019881Y001864D01*
X019902Y001822D01*
X019920Y001779D01*
X019933Y001734D01*
X019943Y001688D01*
X019949Y001642D01*
X019951Y001595D01*
X019949Y001548D01*
X019943Y001502D01*
X019933Y001456D01*
X019920Y001411D01*
X019902Y001368D01*
X019881Y001326D01*
X019857Y001286D01*
X019829Y001249D01*
X019798Y001214D01*
X019764Y001181D01*
X019728Y001152D01*
X019689Y001126D01*
X019648Y001103D01*
X019605Y001084D01*
X019561Y001068D01*
X019516Y001056D01*
X019470Y001048D01*
X019423Y001044D01*
X019377Y001044D01*
X019330Y001048D01*
X019284Y001056D01*
X019239Y001068D01*
X019195Y001084D01*
X019152Y001103D01*
X019111Y001126D01*
X019072Y001152D01*
X019036Y001181D01*
X019002Y001214D01*
X018971Y001249D01*
X018943Y001286D01*
X018919Y001326D01*
X018898Y001368D01*
X018880Y001411D01*
X018867Y001456D01*
X018857Y001502D01*
X018851Y001548D01*
X018849Y001595D01*
D12*
X017650Y002140D02*
X017650Y002660D01*
X016650Y002660D02*
X016650Y002140D01*
X015650Y002140D02*
X015650Y002660D01*
X014650Y002660D02*
X014650Y002140D01*
X013650Y002140D02*
X013650Y002660D01*
X012650Y002660D02*
X012650Y002140D01*
X011650Y002140D02*
X011650Y002660D01*
X011650Y005140D02*
X011650Y005660D01*
X012650Y005660D02*
X012650Y005140D01*
X013650Y005140D02*
X013650Y005660D01*
X014650Y005660D02*
X014650Y005140D01*
X015650Y005140D02*
X015650Y005660D01*
X016650Y005660D02*
X016650Y005140D01*
X017650Y005140D02*
X017650Y005660D01*
X017150Y010640D02*
X017150Y011160D01*
X016150Y011160D02*
X016150Y010640D01*
X015150Y010640D02*
X015150Y011160D01*
X014150Y011160D02*
X014150Y010640D01*
X013150Y010640D02*
X013150Y011160D01*
X012150Y011160D02*
X012150Y010640D01*
X011150Y010640D02*
X011150Y011160D01*
X012890Y012400D02*
X013410Y012400D01*
X013410Y013400D02*
X012890Y013400D01*
X012890Y014400D02*
X013410Y014400D01*
X013890Y015400D02*
X014410Y015400D01*
X014410Y016400D02*
X013890Y016400D01*
X013890Y017400D02*
X014410Y017400D01*
X015890Y017400D02*
X016410Y017400D01*
X016410Y016400D02*
X015890Y016400D01*
X015890Y015400D02*
X016410Y015400D01*
X016890Y014400D02*
X017410Y014400D01*
X017410Y013400D02*
X016890Y013400D01*
X016890Y012400D02*
X017410Y012400D01*
X018150Y011160D02*
X018150Y010640D01*
X019150Y010640D02*
X019150Y011160D01*
X019410Y012400D02*
X018890Y012400D01*
X018890Y013400D02*
X019410Y013400D01*
X019410Y014400D02*
X018890Y014400D01*
X018410Y015400D02*
X017890Y015400D01*
X017890Y016400D02*
X018410Y016400D01*
X018410Y017400D02*
X017890Y017400D01*
X015410Y014400D02*
X014890Y014400D01*
X014890Y013400D02*
X015410Y013400D01*
X015410Y012400D02*
X014890Y012400D01*
X012410Y015400D02*
X011890Y015400D01*
X011890Y016400D02*
X012410Y016400D01*
X012410Y017400D02*
X011890Y017400D01*
D13*
X008650Y013400D03*
X008650Y011400D03*
X011650Y009900D03*
X012650Y009900D03*
X013650Y009900D03*
X014650Y009900D03*
X015650Y009900D03*
X016650Y009900D03*
X017650Y009900D03*
X018650Y009900D03*
X018650Y006900D03*
X017650Y006900D03*
X016650Y006900D03*
X015650Y006900D03*
X014650Y006900D03*
X013650Y006900D03*
X012650Y006900D03*
X011650Y006900D03*
X010650Y008150D03*
X007650Y008150D03*
X003650Y009650D03*
X002650Y009650D03*
X002650Y012650D03*
X003650Y012650D03*
X003650Y014150D03*
X002650Y014150D03*
X002650Y017150D03*
X003650Y017150D03*
X004650Y003400D03*
X004650Y001400D03*
X018900Y002900D03*
X018900Y004900D03*
D14*
X009650Y001400D03*
X006650Y001400D03*
X011150Y018400D03*
X012150Y018400D03*
X013150Y018400D03*
X014150Y018400D03*
X015150Y018400D03*
X016150Y018400D03*
X017150Y018400D03*
X018150Y018400D03*
X019150Y018400D03*
D15*
X009650Y002400D03*
X006650Y002400D03*
D16*
X006138Y004916D02*
X005662Y004916D01*
X005662Y006884D02*
X006138Y006884D01*
D17*
X008150Y004150D03*
X007400Y003650D03*
X008150Y003150D03*
D18*
X009650Y003575D03*
X009650Y006725D03*
D19*
X009981Y012022D03*
X009981Y012809D03*
X009981Y013597D03*
X009981Y014384D03*
X009981Y015172D03*
X009981Y015959D03*
X009981Y016746D03*
X009981Y017534D03*
X009981Y018321D03*
X001319Y018321D03*
X001319Y017534D03*
X001319Y016746D03*
X001319Y015959D03*
X001319Y015172D03*
X001319Y014384D03*
X001319Y013597D03*
X001319Y012809D03*
X001319Y012022D03*
X001319Y011235D03*
D20*
X009981Y011235D03*
D21*
X002400Y004069D03*
X002400Y002691D03*
D22*
X001510Y005370D03*
X003290Y005370D03*
X003290Y007930D03*
X001510Y007930D03*
D23*
X001510Y009150D01*
X000880Y009121D02*
X008604Y009121D01*
X008555Y009170D02*
X010420Y007305D01*
X010420Y004495D01*
X009919Y003994D01*
X009747Y004065D01*
X009553Y004065D01*
X009372Y003991D01*
X009235Y003853D01*
X009160Y003673D01*
X009160Y003478D01*
X009235Y003298D01*
X009372Y003160D01*
X009553Y003085D01*
X009747Y003085D01*
X009928Y003160D01*
X010065Y003298D01*
X010140Y003478D01*
X010140Y003565D01*
X010745Y004170D01*
X018495Y004170D01*
X018855Y004530D01*
X019053Y004530D01*
X019270Y004747D01*
X019270Y005053D01*
X019053Y005270D01*
X018747Y005270D01*
X018607Y005130D01*
X018245Y005130D01*
X018020Y005355D01*
X018020Y005734D01*
X017964Y005870D01*
X017860Y005974D01*
X017724Y006030D01*
X017576Y006030D01*
X017440Y005974D01*
X017336Y005870D01*
X017280Y005734D01*
X017280Y005066D01*
X017336Y004930D01*
X017440Y004826D01*
X017576Y004770D01*
X017724Y004770D01*
X017860Y004826D01*
X017879Y004846D01*
X017920Y004805D01*
X017920Y004805D01*
X018055Y004670D01*
X018345Y004670D01*
X018305Y004630D01*
X010880Y004630D01*
X010880Y007495D01*
X010595Y007780D01*
X010803Y007780D01*
X011013Y007990D01*
X011334Y007990D01*
X011990Y007334D01*
X012084Y007240D01*
X012467Y007240D01*
X012280Y007053D01*
X012280Y006747D01*
X012497Y006530D01*
X012803Y006530D01*
X013020Y006747D01*
X013020Y007053D01*
X012833Y007240D01*
X013467Y007240D01*
X013280Y007053D01*
X013280Y006747D01*
X013497Y006530D01*
X013803Y006530D01*
X013990Y006717D01*
X013990Y006334D01*
X014395Y005928D01*
X014336Y005870D01*
X014280Y005734D01*
X014280Y005066D01*
X014336Y004930D01*
X014440Y004826D01*
X014576Y004770D01*
X014724Y004770D01*
X014860Y004826D01*
X014964Y004930D01*
X015020Y005066D01*
X015020Y005734D01*
X014964Y005870D01*
X014860Y005974D01*
X014762Y006014D01*
X014716Y006060D01*
X014310Y006466D01*
X014310Y006717D01*
X014497Y006530D01*
X014803Y006530D01*
X014990Y006717D01*
X014990Y006334D01*
X015395Y005928D01*
X015336Y005870D01*
X015280Y005734D01*
X015280Y005066D01*
X015336Y004930D01*
X015440Y004826D01*
X015576Y004770D01*
X015724Y004770D01*
X015860Y004826D01*
X015964Y004930D01*
X016020Y005066D01*
X016020Y005734D01*
X015964Y005870D01*
X015860Y005974D01*
X015762Y006014D01*
X015716Y006060D01*
X015310Y006466D01*
X015310Y006717D01*
X015497Y006530D01*
X015803Y006530D01*
X015990Y006717D01*
X015990Y006334D01*
X016395Y005928D01*
X016336Y005870D01*
X016280Y005734D01*
X016280Y005066D01*
X016336Y004930D01*
X016440Y004826D01*
X016576Y004770D01*
X016724Y004770D01*
X016860Y004826D01*
X016964Y004930D01*
X017020Y005066D01*
X017020Y005734D01*
X016964Y005870D01*
X016860Y005974D01*
X016762Y006014D01*
X016716Y006060D01*
X016310Y006466D01*
X016310Y006717D01*
X016497Y006530D01*
X016803Y006530D01*
X017020Y006747D01*
X017020Y007053D01*
X016803Y007270D01*
X016497Y007270D01*
X016310Y007083D01*
X016310Y007966D01*
X016216Y008060D01*
X015716Y008560D01*
X012216Y008560D01*
X010810Y009966D01*
X010810Y010410D01*
X010837Y010373D01*
X010883Y010327D01*
X010935Y010289D01*
X010993Y010260D01*
X011054Y010240D01*
X011118Y010230D01*
X011120Y010230D01*
X011120Y010870D01*
X011180Y010870D01*
X011180Y010230D01*
X011182Y010230D01*
X011246Y010240D01*
X011307Y010260D01*
X011365Y010289D01*
X011417Y010327D01*
X011463Y010373D01*
X011490Y010410D01*
X011490Y010263D01*
X011280Y010053D01*
X011280Y009747D01*
X011497Y009530D01*
X011803Y009530D01*
X012020Y009747D01*
X012020Y010053D01*
X011810Y010263D01*
X011810Y010494D01*
X011836Y010430D01*
X011940Y010326D01*
X012076Y010270D01*
X012224Y010270D01*
X012360Y010326D01*
X012464Y010430D01*
X012490Y010494D01*
X012490Y010263D01*
X012280Y010053D01*
X012280Y009747D01*
X012497Y009530D01*
X012803Y009530D01*
X013020Y009747D01*
X013020Y010053D01*
X012810Y010263D01*
X012810Y010494D01*
X012836Y010430D01*
X012940Y010326D01*
X013076Y010270D01*
X013224Y010270D01*
X013360Y010326D01*
X013464Y010430D01*
X013490Y010494D01*
X013490Y010263D01*
X013280Y010053D01*
X013280Y009747D01*
X013497Y009530D01*
X013803Y009530D01*
X014020Y009747D01*
X014020Y010053D01*
X013810Y010263D01*
X013810Y010494D01*
X013836Y010430D01*
X013940Y010326D01*
X014076Y010270D01*
X014224Y010270D01*
X014360Y010326D01*
X014464Y010430D01*
X014490Y010494D01*
X014490Y010263D01*
X014280Y010053D01*
X014280Y009747D01*
X014497Y009530D01*
X014803Y009530D01*
X015020Y009747D01*
X015020Y010053D01*
X014810Y010263D01*
X014810Y010494D01*
X014836Y010430D01*
X014940Y010326D01*
X015076Y010270D01*
X015224Y010270D01*
X015360Y010326D01*
X015464Y010430D01*
X015490Y010494D01*
X015490Y010263D01*
X015280Y010053D01*
X015280Y009747D01*
X015497Y009530D01*
X015803Y009530D01*
X016020Y009747D01*
X016020Y010053D01*
X015810Y010263D01*
X015810Y010494D01*
X015836Y010430D01*
X015940Y010326D01*
X016076Y010270D01*
X016224Y010270D01*
X016360Y010326D01*
X016464Y010430D01*
X016490Y010494D01*
X016490Y010263D01*
X016280Y010053D01*
X016280Y009747D01*
X016497Y009530D01*
X016803Y009530D01*
X017020Y009747D01*
X017020Y010053D01*
X016810Y010263D01*
X016810Y010494D01*
X016836Y010430D01*
X016940Y010326D01*
X017076Y010270D01*
X017224Y010270D01*
X017360Y010326D01*
X017464Y010430D01*
X017490Y010494D01*
X017490Y010263D01*
X017280Y010053D01*
X017280Y009747D01*
X017497Y009530D01*
X017803Y009530D01*
X018020Y009747D01*
X018020Y010053D01*
X017810Y010263D01*
X017810Y010494D01*
X017836Y010430D01*
X017940Y010326D01*
X018076Y010270D01*
X018224Y010270D01*
X018360Y010326D01*
X018464Y010430D01*
X018490Y010494D01*
X018490Y010263D01*
X018280Y010053D01*
X018280Y009747D01*
X018497Y009530D01*
X018803Y009530D01*
X019020Y009747D01*
X019020Y010053D01*
X018810Y010263D01*
X018810Y010494D01*
X018836Y010430D01*
X018940Y010326D01*
X019076Y010270D01*
X019224Y010270D01*
X019360Y010326D01*
X019464Y010430D01*
X019520Y010566D01*
X019520Y011234D01*
X019464Y011370D01*
X019360Y011474D01*
X019224Y011530D01*
X019076Y011530D01*
X018940Y011474D01*
X018836Y011370D01*
X018810Y011306D01*
X018810Y011966D01*
X018697Y012080D01*
X018816Y012030D01*
X019484Y012030D01*
X019620Y012086D01*
X019724Y012190D01*
X019780Y012326D01*
X019780Y012474D01*
X019724Y012610D01*
X019620Y012714D01*
X019484Y012770D01*
X018816Y012770D01*
X018680Y012714D01*
X018576Y012610D01*
X018560Y012570D01*
X018560Y013084D01*
X018622Y013145D01*
X018680Y013086D01*
X018816Y013030D01*
X019484Y013030D01*
X019620Y013086D01*
X019724Y013190D01*
X019780Y013326D01*
X019780Y013474D01*
X019724Y013610D01*
X019620Y013714D01*
X019484Y013770D01*
X018816Y013770D01*
X018680Y013714D01*
X018576Y013610D01*
X018536Y013512D01*
X018490Y013466D01*
X018240Y013216D01*
X018240Y012084D01*
X018334Y011990D01*
X018490Y011834D01*
X018490Y011306D01*
X018464Y011370D01*
X018360Y011474D01*
X018224Y011530D01*
X018076Y011530D01*
X017940Y011474D01*
X017836Y011370D01*
X017810Y011306D01*
X017810Y011834D01*
X017966Y011990D01*
X017966Y011990D01*
X018060Y012084D01*
X018060Y014716D01*
X017697Y015080D01*
X017816Y015030D01*
X018484Y015030D01*
X018620Y015086D01*
X018724Y015190D01*
X018780Y015326D01*
X018780Y015474D01*
X018724Y015610D01*
X018620Y015714D01*
X018484Y015770D01*
X017816Y015770D01*
X017680Y015714D01*
X017576Y015610D01*
X017560Y015570D01*
X017560Y016084D01*
X017622Y016145D01*
X017680Y016086D01*
X017816Y016030D01*
X018484Y016030D01*
X018620Y016086D01*
X018724Y016190D01*
X018780Y016326D01*
X018780Y016474D01*
X018724Y016610D01*
X018620Y016714D01*
X018484Y016770D01*
X017816Y016770D01*
X017680Y016714D01*
X017576Y016610D01*
X017536Y016512D01*
X017490Y016466D01*
X017240Y016216D01*
X017240Y015084D01*
X017334Y014990D01*
X017603Y014720D01*
X017484Y014770D01*
X016816Y014770D01*
X016680Y014714D01*
X016576Y014610D01*
X016520Y014474D01*
X016520Y014326D01*
X016576Y014190D01*
X016680Y014086D01*
X016816Y014030D01*
X017484Y014030D01*
X017620Y014086D01*
X017724Y014190D01*
X017740Y014230D01*
X017740Y013570D01*
X017724Y013610D01*
X017620Y013714D01*
X017484Y013770D01*
X016816Y013770D01*
X016680Y013714D01*
X016576Y013610D01*
X016536Y013512D01*
X016490Y013466D01*
X016240Y013216D01*
X016240Y012084D01*
X016334Y011990D01*
X016490Y011834D01*
X016490Y011306D01*
X016464Y011370D01*
X016360Y011474D01*
X016224Y011530D01*
X016076Y011530D01*
X015940Y011474D01*
X015836Y011370D01*
X015810Y011306D01*
X015810Y011834D01*
X015966Y011990D01*
X016060Y012084D01*
X016060Y014716D01*
X015697Y015080D01*
X015816Y015030D01*
X016484Y015030D01*
X016620Y015086D01*
X016724Y015190D01*
X016780Y015326D01*
X016780Y015474D01*
X016724Y015610D01*
X016620Y015714D01*
X016484Y015770D01*
X015816Y015770D01*
X015680Y015714D01*
X015576Y015610D01*
X015560Y015570D01*
X015560Y016084D01*
X015622Y016145D01*
X015680Y016086D01*
X015816Y016030D01*
X016484Y016030D01*
X016620Y016086D01*
X016724Y016190D01*
X016780Y016326D01*
X016780Y016474D01*
X016724Y016610D01*
X016620Y016714D01*
X016484Y016770D01*
X015816Y016770D01*
X015680Y016714D01*
X015576Y016610D01*
X015536Y016512D01*
X015490Y016466D01*
X015240Y016216D01*
X015240Y015084D01*
X015334Y014990D01*
X015603Y014720D01*
X015484Y014770D01*
X014816Y014770D01*
X014680Y014714D01*
X014576Y014610D01*
X014520Y014474D01*
X014520Y014326D01*
X014576Y014190D01*
X014680Y014086D01*
X014816Y014030D01*
X015484Y014030D01*
X015620Y014086D01*
X015724Y014190D01*
X015740Y014230D01*
X015740Y013570D01*
X015724Y013610D01*
X015620Y013714D01*
X015484Y013770D01*
X014816Y013770D01*
X014680Y013714D01*
X014576Y013610D01*
X014536Y013512D01*
X014490Y013466D01*
X014240Y013216D01*
X014240Y012084D01*
X014334Y011990D01*
X014490Y011834D01*
X014490Y011306D01*
X014464Y011370D01*
X014360Y011474D01*
X014224Y011530D01*
X014076Y011530D01*
X013940Y011474D01*
X013836Y011370D01*
X013810Y011306D01*
X013810Y011834D01*
X013966Y011990D01*
X014060Y012084D01*
X014060Y014716D01*
X013697Y015080D01*
X013816Y015030D01*
X014484Y015030D01*
X014620Y015086D01*
X014724Y015190D01*
X014780Y015326D01*
X014780Y015474D01*
X014724Y015610D01*
X014620Y015714D01*
X014484Y015770D01*
X013816Y015770D01*
X013680Y015714D01*
X013576Y015610D01*
X013560Y015570D01*
X013560Y016084D01*
X013622Y016145D01*
X013680Y016086D01*
X013816Y016030D01*
X014484Y016030D01*
X014620Y016086D01*
X014724Y016190D01*
X014780Y016326D01*
X014780Y016474D01*
X014724Y016610D01*
X014620Y016714D01*
X014484Y016770D01*
X013816Y016770D01*
X013680Y016714D01*
X013576Y016610D01*
X013536Y016512D01*
X013490Y016466D01*
X013240Y016216D01*
X013240Y015084D01*
X013334Y014990D01*
X013603Y014720D01*
X013484Y014770D01*
X012816Y014770D01*
X012680Y014714D01*
X012576Y014610D01*
X012520Y014474D01*
X012520Y014326D01*
X012576Y014190D01*
X012680Y014086D01*
X012816Y014030D01*
X013484Y014030D01*
X013620Y014086D01*
X013724Y014190D01*
X013740Y014230D01*
X013740Y013570D01*
X013724Y013610D01*
X013620Y013714D01*
X013484Y013770D01*
X012816Y013770D01*
X012680Y013714D01*
X012576Y013610D01*
X012536Y013512D01*
X012490Y013466D01*
X012240Y013216D01*
X012240Y012084D01*
X012334Y011990D01*
X012490Y011834D01*
X012490Y011306D01*
X012464Y011370D01*
X012360Y011474D01*
X012224Y011530D01*
X012076Y011530D01*
X011940Y011474D01*
X011836Y011370D01*
X011810Y011306D01*
X011810Y014966D01*
X011716Y015060D01*
X011697Y015080D01*
X011816Y015030D01*
X012484Y015030D01*
X012620Y015086D01*
X012724Y015190D01*
X012780Y015326D01*
X012780Y015474D01*
X012724Y015610D01*
X012620Y015714D01*
X012484Y015770D01*
X011816Y015770D01*
X011680Y015714D01*
X011576Y015610D01*
X011560Y015570D01*
X011560Y016084D01*
X011622Y016145D01*
X011680Y016086D01*
X011816Y016030D01*
X012484Y016030D01*
X012620Y016086D01*
X012724Y016190D01*
X012780Y016326D01*
X012780Y016474D01*
X012724Y016610D01*
X012620Y016714D01*
X012484Y016770D01*
X011816Y016770D01*
X011680Y016714D01*
X011576Y016610D01*
X011536Y016512D01*
X011490Y016466D01*
X011240Y016216D01*
X011240Y015084D01*
X011334Y014990D01*
X011490Y014834D01*
X011490Y011390D01*
X011463Y011427D01*
X011417Y011473D01*
X011365Y011511D01*
X011307Y011540D01*
X011246Y011560D01*
X011182Y011570D01*
X011180Y011570D01*
X011180Y010930D01*
X011120Y010930D01*
X011120Y011570D01*
X011118Y011570D01*
X011054Y011560D01*
X010993Y011540D01*
X010935Y011511D01*
X010883Y011473D01*
X010837Y011427D01*
X010810Y011390D01*
X010810Y012466D01*
X010716Y012560D01*
X010358Y012919D01*
X010311Y013030D01*
X010202Y013140D01*
X010058Y013199D01*
X009903Y013199D01*
X009760Y013140D01*
X009650Y013030D01*
X009591Y012887D01*
X009591Y012732D01*
X009650Y012589D01*
X009760Y012479D01*
X009903Y012419D01*
X010058Y012419D01*
X010202Y012479D01*
X010273Y012550D01*
X010490Y012334D01*
X010490Y009834D01*
X011990Y008334D01*
X012084Y008240D01*
X015584Y008240D01*
X015990Y007834D01*
X015990Y007083D01*
X015803Y007270D01*
X015497Y007270D01*
X015310Y007083D01*
X015310Y007466D01*
X015216Y007560D01*
X014716Y008060D01*
X012216Y008060D01*
X009560Y010716D01*
X009560Y011584D01*
X009714Y011737D01*
X009760Y011691D01*
X009903Y011632D01*
X010058Y011632D01*
X010202Y011691D01*
X010311Y011801D01*
X010371Y011944D01*
X010371Y012100D01*
X010311Y012243D01*
X010202Y012353D01*
X010058Y012412D01*
X009903Y012412D01*
X009760Y012353D01*
X009650Y012243D01*
X009591Y012100D01*
X009591Y012060D01*
X009584Y012060D01*
X009490Y011966D01*
X009240Y011716D01*
X009240Y010584D01*
X009334Y010490D01*
X012084Y007740D01*
X014584Y007740D01*
X014990Y007334D01*
X014990Y007083D01*
X014803Y007270D01*
X014497Y007270D01*
X014310Y007083D01*
X014310Y007216D01*
X014216Y007310D01*
X013966Y007560D01*
X012216Y007560D01*
X011466Y008310D01*
X011013Y008310D01*
X010803Y008520D01*
X010497Y008520D01*
X010280Y008303D01*
X010280Y008095D01*
X008880Y009495D01*
X008880Y011107D01*
X009020Y011247D01*
X009020Y011553D01*
X008803Y011770D01*
X008497Y011770D01*
X008280Y011553D01*
X008280Y011247D01*
X008420Y011107D01*
X008420Y009305D01*
X008555Y009170D01*
X008505Y009220D02*
X000880Y009220D01*
X000880Y009318D02*
X002459Y009318D01*
X002497Y009280D02*
X002803Y009280D01*
X003020Y009497D01*
X003020Y009803D01*
X002803Y010020D01*
X002497Y010020D01*
X002280Y009803D01*
X002280Y009497D01*
X002497Y009280D01*
X002360Y009417D02*
X000880Y009417D01*
X000880Y009515D02*
X002280Y009515D01*
X002280Y009614D02*
X000880Y009614D01*
X000880Y009712D02*
X002280Y009712D01*
X002287Y009811D02*
X000880Y009811D01*
X000880Y009909D02*
X002386Y009909D01*
X002484Y010008D02*
X000880Y010008D01*
X000880Y010106D02*
X008420Y010106D01*
X008420Y010008D02*
X003816Y010008D01*
X003803Y010020D02*
X003497Y010020D01*
X003280Y009803D01*
X003280Y009497D01*
X003497Y009280D01*
X003803Y009280D01*
X004020Y009497D01*
X004020Y009803D01*
X003803Y010020D01*
X003914Y009909D02*
X008420Y009909D01*
X008420Y009811D02*
X004013Y009811D01*
X004020Y009712D02*
X008420Y009712D01*
X008420Y009614D02*
X004020Y009614D01*
X004020Y009515D02*
X008420Y009515D01*
X008420Y009417D02*
X003940Y009417D01*
X003841Y009318D02*
X008420Y009318D01*
X008702Y009023D02*
X000880Y009023D01*
X000880Y008924D02*
X008801Y008924D01*
X008899Y008826D02*
X000880Y008826D01*
X000880Y008727D02*
X008998Y008727D01*
X009096Y008629D02*
X000880Y008629D01*
X000880Y008530D02*
X009195Y008530D01*
X009293Y008432D02*
X007892Y008432D01*
X007803Y008520D02*
X007497Y008520D01*
X007287Y008310D01*
X003589Y008310D01*
X003562Y008337D01*
X003385Y008410D01*
X003195Y008410D01*
X003018Y008337D01*
X002883Y008202D01*
X002810Y008025D01*
X002810Y007835D01*
X002883Y007658D01*
X003018Y007523D01*
X003130Y007477D01*
X003130Y005823D01*
X003018Y005777D01*
X002883Y005642D01*
X002810Y005465D01*
X002810Y005275D01*
X002883Y005098D01*
X003018Y004963D01*
X003195Y004890D01*
X003385Y004890D01*
X003562Y004963D01*
X003697Y005098D01*
X003770Y005275D01*
X003770Y005465D01*
X003697Y005642D01*
X003562Y005777D01*
X003450Y005823D01*
X003450Y007477D01*
X003562Y007523D01*
X003697Y007658D01*
X003770Y007835D01*
X003770Y007990D01*
X007287Y007990D01*
X007497Y007780D01*
X007803Y007780D01*
X008020Y007997D01*
X008020Y008303D01*
X007803Y008520D01*
X007990Y008333D02*
X009392Y008333D01*
X009490Y008235D02*
X008020Y008235D01*
X008020Y008136D02*
X009589Y008136D01*
X009687Y008038D02*
X008020Y008038D01*
X007962Y007939D02*
X009786Y007939D01*
X009884Y007841D02*
X007864Y007841D01*
X007650Y008150D02*
X003510Y008150D01*
X003290Y007930D01*
X003290Y005370D01*
X002915Y005674D02*
X001932Y005674D01*
X001955Y005643D02*
X001907Y005709D01*
X001849Y005767D01*
X001783Y005815D01*
X001710Y005852D01*
X001632Y005877D01*
X001560Y005889D01*
X001560Y005420D01*
X001460Y005420D01*
X001460Y005889D01*
X001388Y005877D01*
X001310Y005852D01*
X001237Y005815D01*
X001171Y005767D01*
X001113Y005709D01*
X001065Y005643D01*
X001028Y005570D01*
X001003Y005492D01*
X000991Y005420D01*
X001460Y005420D01*
X001460Y005320D01*
X000991Y005320D01*
X001003Y005248D01*
X001028Y005170D01*
X001065Y005097D01*
X001113Y005031D01*
X001171Y004973D01*
X001237Y004925D01*
X001310Y004888D01*
X001388Y004863D01*
X001460Y004851D01*
X001460Y005320D01*
X001560Y005320D01*
X001560Y005420D01*
X002029Y005420D01*
X002017Y005492D01*
X001992Y005570D01*
X001955Y005643D01*
X001989Y005575D02*
X002855Y005575D01*
X002815Y005477D02*
X002020Y005477D01*
X002029Y005320D02*
X001560Y005320D01*
X001560Y004851D01*
X001632Y004863D01*
X001710Y004888D01*
X001783Y004925D01*
X001849Y004973D01*
X001907Y005031D01*
X001955Y005097D01*
X001992Y005170D01*
X002017Y005248D01*
X002029Y005320D01*
X002022Y005280D02*
X002810Y005280D01*
X002810Y005378D02*
X001560Y005378D01*
X001510Y005370D02*
X001510Y002790D01*
X001650Y002650D01*
X002359Y002650D01*
X002400Y002691D01*
X002400Y002650D02*
X002400Y001900D01*
X002650Y001650D01*
X003400Y001650D01*
X003650Y001400D01*
X004650Y001400D01*
X006650Y001400D01*
X008150Y001400D01*
X008150Y003150D01*
X008180Y003120D02*
X008180Y003180D01*
X008120Y003180D01*
X008120Y003630D01*
X007951Y003630D01*
X007840Y003519D01*
X007840Y003832D01*
X007582Y004090D01*
X007218Y004090D01*
X006960Y003832D01*
X006960Y003468D01*
X007218Y003210D01*
X007582Y003210D01*
X007670Y003298D01*
X007670Y003180D01*
X008120Y003180D01*
X008120Y003120D01*
X007670Y003120D01*
X007670Y002951D01*
X007951Y002670D01*
X008120Y002670D01*
X008120Y003120D01*
X008180Y003120D01*
X008630Y003120D01*
X008630Y002951D01*
X008349Y002670D01*
X008180Y002670D01*
X008180Y003120D01*
X008180Y003113D02*
X008120Y003113D01*
X008180Y003180D02*
X008630Y003180D01*
X008630Y003349D01*
X008349Y003630D01*
X008180Y003630D01*
X008180Y003180D01*
X008180Y003211D02*
X008120Y003211D01*
X008120Y003310D02*
X008180Y003310D01*
X008180Y003408D02*
X008120Y003408D01*
X008120Y003507D02*
X008180Y003507D01*
X008180Y003605D02*
X008120Y003605D01*
X007968Y003710D02*
X008332Y003710D01*
X008590Y003968D01*
X008590Y004332D01*
X008332Y004590D01*
X007968Y004590D01*
X007710Y004332D01*
X007710Y003968D01*
X007968Y003710D01*
X007926Y003605D02*
X007840Y003605D01*
X007840Y003704D02*
X009173Y003704D01*
X009160Y003605D02*
X008374Y003605D01*
X008472Y003507D02*
X009160Y003507D01*
X009189Y003408D02*
X008571Y003408D01*
X008630Y003310D02*
X009230Y003310D01*
X009321Y003211D02*
X008630Y003211D01*
X008630Y003113D02*
X009487Y003113D01*
X009558Y002860D02*
X009389Y002790D01*
X009260Y002661D01*
X009190Y002491D01*
X009190Y002308D01*
X009260Y002139D01*
X009389Y002010D01*
X009558Y001940D01*
X009741Y001940D01*
X009911Y002010D01*
X010040Y002139D01*
X010110Y002308D01*
X010110Y002491D01*
X010040Y002661D01*
X009911Y002790D01*
X009741Y002860D01*
X009558Y002860D01*
X009455Y002817D02*
X008496Y002817D01*
X008594Y002916D02*
X011382Y002916D01*
X011336Y002870D02*
X011280Y002734D01*
X011280Y002066D01*
X011336Y001930D01*
X011440Y001826D01*
X011576Y001770D01*
X011724Y001770D01*
X011860Y001826D01*
X011964Y001930D01*
X012020Y002066D01*
X012020Y002734D01*
X011964Y002870D01*
X011860Y002974D01*
X011724Y003030D01*
X011576Y003030D01*
X011440Y002974D01*
X011336Y002870D01*
X011315Y002817D02*
X009845Y002817D01*
X009982Y002719D02*
X011280Y002719D01*
X011280Y002620D02*
X010057Y002620D01*
X010098Y002522D02*
X011280Y002522D01*
X011280Y002423D02*
X010110Y002423D01*
X010110Y002325D02*
X011280Y002325D01*
X011280Y002226D02*
X010076Y002226D01*
X010028Y002128D02*
X011280Y002128D01*
X011295Y002029D02*
X009930Y002029D01*
X009857Y001900D02*
X009680Y001900D01*
X009680Y001430D01*
X009620Y001430D01*
X009620Y001900D01*
X009443Y001900D01*
X009150Y001607D01*
X009150Y001430D01*
X009620Y001430D01*
X009620Y001370D01*
X009150Y001370D01*
X009150Y001193D01*
X009443Y000900D01*
X009620Y000900D01*
X009620Y001370D01*
X009680Y001370D01*
X009680Y001430D01*
X010150Y001430D01*
X010150Y001607D01*
X009857Y001900D01*
X009925Y001832D02*
X011435Y001832D01*
X011336Y001931D02*
X002270Y001931D01*
X002244Y001992D02*
X002047Y002189D01*
X001789Y002296D01*
X001511Y002296D01*
X001253Y002189D01*
X001056Y001992D01*
X000949Y001734D01*
X000949Y001455D01*
X001056Y001198D01*
X001253Y001000D01*
X001511Y000894D01*
X001789Y000894D01*
X002047Y001000D01*
X002244Y001198D01*
X002351Y001455D01*
X002351Y001734D01*
X002244Y001992D01*
X002207Y002029D02*
X006370Y002029D01*
X006389Y002010D02*
X006558Y001940D01*
X006741Y001940D01*
X006911Y002010D01*
X007040Y002139D01*
X007110Y002308D01*
X007110Y002491D01*
X007040Y002661D01*
X006911Y002790D01*
X006741Y002860D01*
X006558Y002860D01*
X006389Y002790D01*
X006260Y002661D01*
X006190Y002491D01*
X006190Y002308D01*
X006260Y002139D01*
X006389Y002010D01*
X006443Y001900D02*
X006150Y001607D01*
X006150Y001430D01*
X006620Y001430D01*
X006620Y001900D01*
X006443Y001900D01*
X006375Y001832D02*
X002311Y001832D01*
X002351Y001734D02*
X004404Y001734D01*
X004480Y001810D02*
X004240Y001570D01*
X004240Y001430D01*
X004620Y001430D01*
X004620Y001810D01*
X004480Y001810D01*
X004620Y001734D02*
X004680Y001734D01*
X004680Y001810D02*
X004680Y001430D01*
X004620Y001430D01*
X004620Y001370D01*
X004240Y001370D01*
X004240Y001230D01*
X004480Y000990D01*
X004620Y000990D01*
X004620Y001370D01*
X004680Y001370D01*
X004680Y001430D01*
X005060Y001430D01*
X005060Y001570D01*
X004820Y001810D01*
X004680Y001810D01*
X004680Y001635D02*
X004620Y001635D01*
X004620Y001537D02*
X004680Y001537D01*
X004680Y001438D02*
X004620Y001438D01*
X004680Y001370D02*
X005060Y001370D01*
X005060Y001230D01*
X004820Y000990D01*
X004680Y000990D01*
X004680Y001370D01*
X004680Y001340D02*
X004620Y001340D01*
X004620Y001241D02*
X004680Y001241D01*
X004680Y001143D02*
X004620Y001143D01*
X004620Y001044D02*
X004680Y001044D01*
X004874Y001044D02*
X006299Y001044D01*
X006397Y000946D02*
X001915Y000946D01*
X002091Y001044D02*
X004426Y001044D01*
X004328Y001143D02*
X002189Y001143D01*
X002262Y001241D02*
X004240Y001241D01*
X004240Y001340D02*
X002303Y001340D01*
X002344Y001438D02*
X004240Y001438D01*
X004240Y001537D02*
X002351Y001537D01*
X002351Y001635D02*
X004305Y001635D01*
X004896Y001734D02*
X006276Y001734D01*
X006178Y001635D02*
X004995Y001635D01*
X005060Y001537D02*
X006150Y001537D01*
X006150Y001438D02*
X005060Y001438D01*
X005060Y001340D02*
X006150Y001340D01*
X006150Y001370D02*
X006150Y001193D01*
X006443Y000900D01*
X006620Y000900D01*
X006620Y001370D01*
X006150Y001370D01*
X006150Y001241D02*
X005060Y001241D01*
X004972Y001143D02*
X006200Y001143D01*
X006620Y001143D02*
X006680Y001143D01*
X006680Y001241D02*
X006620Y001241D01*
X006620Y001340D02*
X006680Y001340D01*
X006680Y001370D02*
X006680Y000900D01*
X006857Y000900D01*
X007150Y001193D01*
X007150Y001370D01*
X006680Y001370D01*
X006680Y001430D01*
X006620Y001430D01*
X006620Y001370D01*
X006680Y001370D01*
X006680Y001430D02*
X007150Y001430D01*
X007150Y001607D01*
X006857Y001900D01*
X006680Y001900D01*
X006680Y001430D01*
X006680Y001438D02*
X006620Y001438D01*
X006620Y001537D02*
X006680Y001537D01*
X006680Y001635D02*
X006620Y001635D01*
X006620Y001734D02*
X006680Y001734D01*
X006680Y001832D02*
X006620Y001832D01*
X006272Y002128D02*
X002542Y002128D01*
X002536Y002126D02*
X002623Y002154D01*
X002704Y002195D01*
X002778Y002249D01*
X002842Y002313D01*
X002896Y002387D01*
X002938Y002469D01*
X002966Y002556D01*
X002980Y002643D01*
X002448Y002643D01*
X002448Y002112D01*
X002536Y002126D01*
X002448Y002128D02*
X002352Y002128D01*
X002352Y002112D02*
X002352Y002643D01*
X002448Y002643D01*
X002448Y002740D01*
X002352Y002740D01*
X002352Y003271D01*
X002264Y003257D01*
X002177Y003229D01*
X002096Y003187D01*
X002022Y003134D01*
X001958Y003069D01*
X001904Y002995D01*
X001862Y002914D01*
X001834Y002827D01*
X001820Y002740D01*
X002352Y002740D01*
X002352Y002643D01*
X001820Y002643D01*
X001834Y002556D01*
X001862Y002469D01*
X001904Y002387D01*
X001958Y002313D01*
X002022Y002249D01*
X002096Y002195D01*
X002177Y002154D01*
X002264Y002126D01*
X002352Y002112D01*
X002258Y002128D02*
X002109Y002128D01*
X002054Y002226D02*
X001959Y002226D01*
X001950Y002325D02*
X000880Y002325D01*
X000880Y002423D02*
X001886Y002423D01*
X001845Y002522D02*
X000880Y002522D01*
X000880Y002620D02*
X001824Y002620D01*
X001833Y002817D02*
X000880Y002817D01*
X000880Y002719D02*
X002352Y002719D01*
X002448Y002719D02*
X006318Y002719D01*
X006243Y002620D02*
X002976Y002620D01*
X002955Y002522D02*
X006202Y002522D01*
X006190Y002423D02*
X002914Y002423D01*
X002850Y002325D02*
X006190Y002325D01*
X006224Y002226D02*
X002746Y002226D01*
X002448Y002226D02*
X002352Y002226D01*
X002352Y002325D02*
X002448Y002325D01*
X002448Y002423D02*
X002352Y002423D01*
X002352Y002522D02*
X002448Y002522D01*
X002448Y002620D02*
X002352Y002620D01*
X002448Y002740D02*
X002980Y002740D01*
X002966Y002827D01*
X002938Y002914D01*
X002896Y002995D01*
X002842Y003069D01*
X002778Y003134D01*
X002704Y003187D01*
X002623Y003229D01*
X002536Y003257D01*
X002448Y003271D01*
X002448Y002740D01*
X002448Y002817D02*
X002352Y002817D01*
X002352Y002916D02*
X002448Y002916D01*
X002448Y003014D02*
X002352Y003014D01*
X002352Y003113D02*
X002448Y003113D01*
X002448Y003211D02*
X002352Y003211D01*
X002142Y003211D02*
X000880Y003211D01*
X000880Y003113D02*
X002001Y003113D01*
X001918Y003014D02*
X000880Y003014D01*
X000880Y002916D02*
X001863Y002916D01*
X002094Y003612D02*
X002293Y003529D01*
X002507Y003529D01*
X002706Y003612D01*
X002858Y003763D01*
X002940Y003962D01*
X002940Y004177D01*
X002858Y004375D01*
X002706Y004527D01*
X002507Y004609D01*
X002293Y004609D01*
X002094Y004527D01*
X001942Y004375D01*
X001860Y004177D01*
X001860Y003962D01*
X001942Y003763D01*
X002094Y003612D01*
X002110Y003605D02*
X000880Y003605D01*
X000880Y003507D02*
X004280Y003507D01*
X004280Y003553D02*
X004280Y003247D01*
X004497Y003030D01*
X004803Y003030D01*
X005020Y003247D01*
X005020Y003553D01*
X004803Y003770D01*
X004497Y003770D01*
X004280Y003553D01*
X004332Y003605D02*
X002690Y003605D01*
X002798Y003704D02*
X004430Y003704D01*
X004280Y003408D02*
X000880Y003408D01*
X000880Y003310D02*
X004280Y003310D01*
X004316Y003211D02*
X002658Y003211D01*
X002799Y003113D02*
X004414Y003113D01*
X004886Y003113D02*
X007670Y003113D01*
X007670Y003211D02*
X007583Y003211D01*
X007670Y003014D02*
X002882Y003014D01*
X002937Y002916D02*
X007706Y002916D01*
X007804Y002817D02*
X006845Y002817D01*
X006982Y002719D02*
X007903Y002719D01*
X008120Y002719D02*
X008180Y002719D01*
X008180Y002817D02*
X008120Y002817D01*
X008120Y002916D02*
X008180Y002916D01*
X008180Y003014D02*
X008120Y003014D01*
X008397Y002719D02*
X009318Y002719D01*
X009243Y002620D02*
X007057Y002620D01*
X007098Y002522D02*
X009202Y002522D01*
X009190Y002423D02*
X007110Y002423D01*
X007110Y002325D02*
X009190Y002325D01*
X009224Y002226D02*
X007076Y002226D01*
X007028Y002128D02*
X009272Y002128D01*
X009370Y002029D02*
X006930Y002029D01*
X006925Y001832D02*
X009375Y001832D01*
X009276Y001734D02*
X007024Y001734D01*
X007122Y001635D02*
X009178Y001635D01*
X009150Y001537D02*
X007150Y001537D01*
X007150Y001438D02*
X009150Y001438D01*
X009150Y001340D02*
X007150Y001340D01*
X007150Y001241D02*
X009150Y001241D01*
X009200Y001143D02*
X007100Y001143D01*
X007001Y001044D02*
X009299Y001044D01*
X009397Y000946D02*
X006903Y000946D01*
X006680Y000946D02*
X006620Y000946D01*
X006620Y001044D02*
X006680Y001044D01*
X008150Y001400D02*
X009650Y001400D01*
X017650Y001400D01*
X017650Y002400D01*
X017650Y003400D01*
X018900Y003400D01*
X018900Y002900D01*
X018930Y002916D02*
X020105Y002916D01*
X020105Y003014D02*
X019310Y003014D01*
X019310Y003070D02*
X019070Y003310D01*
X018930Y003310D01*
X018930Y002930D01*
X018870Y002930D01*
X018870Y003310D01*
X018730Y003310D01*
X018490Y003070D01*
X018490Y002930D01*
X018870Y002930D01*
X018870Y002870D01*
X018490Y002870D01*
X018490Y002730D01*
X018730Y002490D01*
X018870Y002490D01*
X018870Y002870D01*
X018930Y002870D01*
X018930Y002930D01*
X019310Y002930D01*
X019310Y003070D01*
X019267Y003113D02*
X020105Y003113D01*
X020105Y003211D02*
X019169Y003211D01*
X019070Y003310D02*
X020105Y003310D01*
X020105Y003408D02*
X010111Y003408D01*
X010140Y003507D02*
X020105Y003507D01*
X020105Y003605D02*
X010180Y003605D01*
X010279Y003704D02*
X020105Y003704D01*
X020105Y003802D02*
X010377Y003802D01*
X010476Y003901D02*
X020105Y003901D01*
X020105Y003999D02*
X010574Y003999D01*
X010673Y004098D02*
X020105Y004098D01*
X020105Y004196D02*
X018521Y004196D01*
X018620Y004295D02*
X020105Y004295D01*
X020105Y004393D02*
X018718Y004393D01*
X018817Y004492D02*
X020105Y004492D01*
X020105Y004590D02*
X019113Y004590D01*
X019212Y004689D02*
X020105Y004689D01*
X020105Y004787D02*
X019270Y004787D01*
X019270Y004886D02*
X020105Y004886D01*
X020105Y004984D02*
X019270Y004984D01*
X019241Y005083D02*
X020105Y005083D01*
X020105Y005181D02*
X019142Y005181D01*
X018658Y005181D02*
X018194Y005181D01*
X018096Y005280D02*
X020105Y005280D01*
X020105Y005378D02*
X018020Y005378D01*
X018020Y005477D02*
X020105Y005477D01*
X020105Y005575D02*
X018020Y005575D01*
X018020Y005674D02*
X020105Y005674D01*
X020105Y005772D02*
X018004Y005772D01*
X017963Y005871D02*
X020105Y005871D01*
X020105Y005969D02*
X017864Y005969D01*
X017436Y005969D02*
X016864Y005969D01*
X016963Y005871D02*
X017337Y005871D01*
X017296Y005772D02*
X017004Y005772D01*
X017020Y005674D02*
X017280Y005674D01*
X017280Y005575D02*
X017020Y005575D01*
X017020Y005477D02*
X017280Y005477D01*
X017280Y005378D02*
X017020Y005378D01*
X017020Y005280D02*
X017280Y005280D01*
X017280Y005181D02*
X017020Y005181D01*
X017020Y005083D02*
X017280Y005083D01*
X017314Y004984D02*
X016986Y004984D01*
X016919Y004886D02*
X017381Y004886D01*
X017535Y004787D02*
X016765Y004787D01*
X016535Y004787D02*
X015765Y004787D01*
X015919Y004886D02*
X016381Y004886D01*
X016314Y004984D02*
X015986Y004984D01*
X016020Y005083D02*
X016280Y005083D01*
X016280Y005181D02*
X016020Y005181D01*
X016020Y005280D02*
X016280Y005280D01*
X016280Y005378D02*
X016020Y005378D01*
X016020Y005477D02*
X016280Y005477D01*
X016280Y005575D02*
X016020Y005575D01*
X016020Y005674D02*
X016280Y005674D01*
X016296Y005772D02*
X016004Y005772D01*
X015963Y005871D02*
X016337Y005871D01*
X016355Y005969D02*
X015864Y005969D01*
X015709Y006068D02*
X016256Y006068D01*
X016158Y006166D02*
X015610Y006166D01*
X015512Y006265D02*
X016059Y006265D01*
X015990Y006363D02*
X015413Y006363D01*
X015315Y006462D02*
X015990Y006462D01*
X015990Y006560D02*
X015833Y006560D01*
X015932Y006659D02*
X015990Y006659D01*
X016150Y006400D02*
X016650Y005900D01*
X016650Y005400D01*
X016709Y006068D02*
X020105Y006068D01*
X020105Y006166D02*
X016610Y006166D01*
X016512Y006265D02*
X020105Y006265D01*
X020105Y006363D02*
X016413Y006363D01*
X016315Y006462D02*
X020105Y006462D01*
X020105Y006560D02*
X018833Y006560D01*
X018803Y006530D02*
X019020Y006747D01*
X019020Y007053D01*
X018803Y007270D01*
X018497Y007270D01*
X018280Y007053D01*
X018280Y006747D01*
X018497Y006530D01*
X018803Y006530D01*
X018932Y006659D02*
X020105Y006659D01*
X020105Y006757D02*
X019020Y006757D01*
X019020Y006856D02*
X020105Y006856D01*
X020105Y006954D02*
X019020Y006954D01*
X019020Y007053D02*
X020105Y007053D01*
X020105Y007151D02*
X018922Y007151D01*
X018824Y007250D02*
X020105Y007250D01*
X020105Y007348D02*
X016310Y007348D01*
X016310Y007250D02*
X016476Y007250D01*
X016378Y007151D02*
X016310Y007151D01*
X016310Y007447D02*
X020105Y007447D01*
X020105Y007545D02*
X016310Y007545D01*
X016310Y007644D02*
X020105Y007644D01*
X020105Y007742D02*
X016310Y007742D01*
X016310Y007841D02*
X020105Y007841D01*
X020105Y007939D02*
X016310Y007939D01*
X016239Y008038D02*
X020105Y008038D01*
X020105Y008136D02*
X016140Y008136D01*
X016042Y008235D02*
X020105Y008235D01*
X020105Y008333D02*
X015943Y008333D01*
X015845Y008432D02*
X020105Y008432D01*
X020105Y008530D02*
X015746Y008530D01*
X015650Y008400D02*
X016150Y007900D01*
X016150Y006400D01*
X016310Y006560D02*
X016467Y006560D01*
X016368Y006659D02*
X016310Y006659D01*
X016833Y006560D02*
X017467Y006560D01*
X017497Y006530D02*
X017280Y006747D01*
X017280Y007053D01*
X017497Y007270D01*
X017803Y007270D01*
X018020Y007053D01*
X018020Y006747D01*
X017803Y006530D01*
X017497Y006530D01*
X017368Y006659D02*
X016932Y006659D01*
X017020Y006757D02*
X017280Y006757D01*
X017280Y006856D02*
X017020Y006856D01*
X017020Y006954D02*
X017280Y006954D01*
X017280Y007053D02*
X017020Y007053D01*
X016922Y007151D02*
X017378Y007151D01*
X017476Y007250D02*
X016824Y007250D01*
X015990Y007250D02*
X015824Y007250D01*
X015922Y007151D02*
X015990Y007151D01*
X015990Y007348D02*
X015310Y007348D01*
X015310Y007250D02*
X015476Y007250D01*
X015378Y007151D02*
X015310Y007151D01*
X015310Y007447D02*
X015990Y007447D01*
X015990Y007545D02*
X015231Y007545D01*
X015133Y007644D02*
X015990Y007644D01*
X015990Y007742D02*
X015034Y007742D01*
X014936Y007841D02*
X015983Y007841D01*
X015885Y007939D02*
X014837Y007939D01*
X014739Y008038D02*
X015786Y008038D01*
X015688Y008136D02*
X012140Y008136D01*
X012042Y008235D02*
X015589Y008235D01*
X015650Y008400D02*
X012150Y008400D01*
X010650Y009900D01*
X010650Y012400D01*
X010241Y012809D01*
X009981Y012809D01*
X009618Y012667D02*
X004020Y012667D01*
X004020Y012569D02*
X009670Y012569D01*
X009781Y012470D02*
X003993Y012470D01*
X004020Y012497D02*
X003803Y012280D01*
X003497Y012280D01*
X003280Y012497D01*
X003280Y012803D01*
X003497Y013020D01*
X003803Y013020D01*
X004020Y012803D01*
X004020Y012497D01*
X003895Y012372D02*
X009805Y012372D01*
X009680Y012273D02*
X001620Y012273D01*
X001650Y012243D02*
X001540Y012353D01*
X001397Y012412D01*
X001242Y012412D01*
X001098Y012353D01*
X000989Y012243D01*
X000929Y012100D01*
X000929Y011944D01*
X000989Y011801D01*
X001098Y011691D01*
X001242Y011632D01*
X001397Y011632D01*
X001540Y011691D01*
X001650Y011801D01*
X001709Y011944D01*
X001709Y012100D01*
X001650Y012243D01*
X001678Y012175D02*
X009622Y012175D01*
X009591Y012076D02*
X001709Y012076D01*
X001709Y011978D02*
X009501Y011978D01*
X009403Y011879D02*
X001682Y011879D01*
X001629Y011781D02*
X009304Y011781D01*
X009240Y011682D02*
X008891Y011682D01*
X008990Y011584D02*
X009240Y011584D01*
X009240Y011485D02*
X009020Y011485D01*
X009020Y011387D02*
X009240Y011387D01*
X009240Y011288D02*
X009020Y011288D01*
X008963Y011190D02*
X009240Y011190D01*
X009240Y011091D02*
X008880Y011091D01*
X008880Y010993D02*
X009240Y010993D01*
X009240Y010894D02*
X008880Y010894D01*
X008880Y010796D02*
X009240Y010796D01*
X009240Y010697D02*
X008880Y010697D01*
X008880Y010599D02*
X009240Y010599D01*
X009324Y010500D02*
X008880Y010500D01*
X008880Y010402D02*
X009422Y010402D01*
X009521Y010303D02*
X008880Y010303D01*
X008880Y010205D02*
X009619Y010205D01*
X009718Y010106D02*
X008880Y010106D01*
X008880Y010008D02*
X009816Y010008D01*
X009915Y009909D02*
X008880Y009909D01*
X008880Y009811D02*
X010013Y009811D01*
X010112Y009712D02*
X008880Y009712D01*
X008880Y009614D02*
X010210Y009614D01*
X010309Y009515D02*
X008880Y009515D01*
X008959Y009417D02*
X010407Y009417D01*
X010506Y009318D02*
X009057Y009318D01*
X009156Y009220D02*
X010604Y009220D01*
X010703Y009121D02*
X009254Y009121D01*
X009353Y009023D02*
X010801Y009023D01*
X010900Y008924D02*
X009451Y008924D01*
X009550Y008826D02*
X010998Y008826D01*
X011097Y008727D02*
X009648Y008727D01*
X009747Y008629D02*
X011195Y008629D01*
X011294Y008530D02*
X009845Y008530D01*
X009944Y008432D02*
X010408Y008432D01*
X010310Y008333D02*
X010042Y008333D01*
X010141Y008235D02*
X010280Y008235D01*
X010280Y008136D02*
X010239Y008136D01*
X010650Y008150D02*
X011400Y008150D01*
X012150Y007400D01*
X013900Y007400D01*
X014150Y007150D01*
X014150Y006400D01*
X014650Y005900D01*
X014650Y005400D01*
X015020Y005378D02*
X015280Y005378D01*
X015280Y005280D02*
X015020Y005280D01*
X015020Y005181D02*
X015280Y005181D01*
X015280Y005083D02*
X015020Y005083D01*
X014986Y004984D02*
X015314Y004984D01*
X015381Y004886D02*
X014919Y004886D01*
X014765Y004787D02*
X015535Y004787D01*
X015650Y005400D02*
X015650Y005900D01*
X015150Y006400D01*
X015150Y007400D01*
X014650Y007900D01*
X012150Y007900D01*
X009400Y010650D01*
X009400Y011650D01*
X009650Y011900D01*
X009859Y011900D01*
X009981Y012022D01*
X010179Y011682D02*
X010490Y011682D01*
X010490Y011584D02*
X010347Y011584D01*
X010371Y011560D02*
X010306Y011625D01*
X009655Y011625D01*
X009591Y011560D01*
X009591Y010909D01*
X009655Y010845D01*
X010306Y010845D01*
X010371Y010909D01*
X010371Y011560D01*
X010371Y011485D02*
X010490Y011485D01*
X010490Y011387D02*
X010371Y011387D01*
X010371Y011288D02*
X010490Y011288D01*
X010490Y011190D02*
X010371Y011190D01*
X010371Y011091D02*
X010490Y011091D01*
X010490Y010993D02*
X010371Y010993D01*
X010356Y010894D02*
X010490Y010894D01*
X010490Y010796D02*
X009560Y010796D01*
X009560Y010894D02*
X009606Y010894D01*
X009591Y010993D02*
X009560Y010993D01*
X009560Y011091D02*
X009591Y011091D01*
X009591Y011190D02*
X009560Y011190D01*
X009560Y011288D02*
X009591Y011288D01*
X009591Y011387D02*
X009560Y011387D01*
X009560Y011485D02*
X009591Y011485D01*
X009614Y011584D02*
X009560Y011584D01*
X009658Y011682D02*
X009782Y011682D01*
X010291Y011781D02*
X010490Y011781D01*
X010490Y011879D02*
X010344Y011879D01*
X010371Y011978D02*
X010490Y011978D01*
X010490Y012076D02*
X010371Y012076D01*
X010340Y012175D02*
X010490Y012175D01*
X010490Y012273D02*
X010281Y012273D01*
X010156Y012372D02*
X010452Y012372D01*
X010354Y012470D02*
X010180Y012470D01*
X010511Y012766D02*
X011490Y012766D01*
X011490Y012864D02*
X010412Y012864D01*
X010339Y012963D02*
X011490Y012963D01*
X011490Y013061D02*
X010281Y013061D01*
X010155Y013160D02*
X011490Y013160D01*
X011490Y013258D02*
X010182Y013258D01*
X010202Y013266D02*
X010058Y013207D01*
X009903Y013207D01*
X009760Y013266D01*
X009650Y013376D01*
X009591Y013519D01*
X009591Y013674D01*
X009650Y013818D01*
X009760Y013927D01*
X009903Y013987D01*
X010058Y013987D01*
X010202Y013927D01*
X010311Y013818D01*
X010371Y013674D01*
X010371Y013519D01*
X010311Y013376D01*
X010202Y013266D01*
X010292Y013357D02*
X011490Y013357D01*
X011490Y013455D02*
X010344Y013455D01*
X010371Y013554D02*
X011490Y013554D01*
X011490Y013652D02*
X010371Y013652D01*
X010339Y013751D02*
X011490Y013751D01*
X011490Y013849D02*
X010280Y013849D01*
X010153Y013948D02*
X011490Y013948D01*
X011490Y014046D02*
X010183Y014046D01*
X010202Y014054D02*
X010058Y013994D01*
X009903Y013994D01*
X009760Y014054D01*
X009650Y014163D01*
X009591Y014307D01*
X009591Y014462D01*
X009650Y014605D01*
X009760Y014715D01*
X009903Y014774D01*
X010058Y014774D01*
X010202Y014715D01*
X010311Y014605D01*
X010371Y014462D01*
X010371Y014307D01*
X010311Y014163D01*
X010202Y014054D01*
X010293Y014145D02*
X011490Y014145D01*
X011490Y014243D02*
X010344Y014243D01*
X010371Y014342D02*
X011490Y014342D01*
X011490Y014440D02*
X010371Y014440D01*
X010339Y014539D02*
X011490Y014539D01*
X011490Y014637D02*
X010279Y014637D01*
X010152Y014736D02*
X011490Y014736D01*
X011490Y014834D02*
X010185Y014834D01*
X010202Y014841D02*
X010058Y014782D01*
X009903Y014782D01*
X009760Y014841D01*
X009650Y014951D01*
X009591Y015094D01*
X009591Y015249D01*
X009650Y015393D01*
X009760Y015502D01*
X009903Y015562D01*
X010058Y015562D01*
X010202Y015502D01*
X010311Y015393D01*
X010371Y015249D01*
X010371Y015094D01*
X010311Y014951D01*
X010202Y014841D01*
X010293Y014933D02*
X011391Y014933D01*
X011334Y014990D02*
X011334Y014990D01*
X011293Y015031D02*
X010345Y015031D01*
X010371Y015130D02*
X011240Y015130D01*
X011240Y015228D02*
X010371Y015228D01*
X010339Y015327D02*
X011240Y015327D01*
X011240Y015425D02*
X010279Y015425D01*
X010150Y015524D02*
X011240Y015524D01*
X011240Y015622D02*
X010186Y015622D01*
X010202Y015628D02*
X010058Y015569D01*
X009903Y015569D01*
X009760Y015628D01*
X009650Y015738D01*
X009591Y015881D01*
X009591Y016037D01*
X009650Y016180D01*
X009760Y016290D01*
X009903Y016349D01*
X010058Y016349D01*
X010202Y016290D01*
X010311Y016180D01*
X010371Y016037D01*
X010371Y015881D01*
X010311Y015738D01*
X010202Y015628D01*
X010294Y015721D02*
X011240Y015721D01*
X011240Y015819D02*
X010345Y015819D01*
X010371Y015918D02*
X011240Y015918D01*
X011240Y016016D02*
X010371Y016016D01*
X010338Y016115D02*
X011240Y016115D01*
X011240Y016213D02*
X010278Y016213D01*
X010149Y016312D02*
X011335Y016312D01*
X011434Y016410D02*
X010188Y016410D01*
X010202Y016416D02*
X010058Y016356D01*
X009903Y016356D01*
X009760Y016416D01*
X009650Y016526D01*
X009591Y016669D01*
X009591Y016824D01*
X009650Y016967D01*
X009760Y017077D01*
X009903Y017136D01*
X010058Y017136D01*
X010202Y017077D01*
X010311Y016967D01*
X010371Y016824D01*
X010371Y016669D01*
X010311Y016526D01*
X010202Y016416D01*
X010294Y016509D02*
X011532Y016509D01*
X011575Y016607D02*
X010345Y016607D01*
X010371Y016706D02*
X011672Y016706D01*
X011650Y016400D02*
X012150Y016400D01*
X011650Y016400D02*
X011400Y016150D01*
X011400Y015150D01*
X011650Y014900D01*
X011650Y009900D01*
X012020Y009909D02*
X012280Y009909D01*
X012280Y009811D02*
X012020Y009811D01*
X011985Y009712D02*
X012315Y009712D01*
X012413Y009614D02*
X011887Y009614D01*
X012020Y010008D02*
X012280Y010008D01*
X012333Y010106D02*
X011967Y010106D01*
X011869Y010205D02*
X012431Y010205D01*
X012490Y010303D02*
X012303Y010303D01*
X012435Y010402D02*
X012490Y010402D01*
X012810Y010402D02*
X012865Y010402D01*
X012810Y010303D02*
X012997Y010303D01*
X012869Y010205D02*
X013431Y010205D01*
X013490Y010303D02*
X013303Y010303D01*
X013435Y010402D02*
X013490Y010402D01*
X013333Y010106D02*
X012967Y010106D01*
X013020Y010008D02*
X013280Y010008D01*
X013280Y009909D02*
X013020Y009909D01*
X013020Y009811D02*
X013280Y009811D01*
X013315Y009712D02*
X012985Y009712D01*
X012887Y009614D02*
X013413Y009614D01*
X013650Y009900D02*
X013650Y011900D01*
X013900Y012150D01*
X013900Y014650D01*
X013400Y015150D01*
X013400Y016150D01*
X013650Y016400D01*
X014150Y016400D01*
X014628Y016706D02*
X015672Y016706D01*
X015575Y016607D02*
X014725Y016607D01*
X014766Y016509D02*
X015532Y016509D01*
X015434Y016410D02*
X014780Y016410D01*
X014774Y016312D02*
X015335Y016312D01*
X015240Y016213D02*
X014733Y016213D01*
X014648Y016115D02*
X015240Y016115D01*
X015240Y016016D02*
X013560Y016016D01*
X013560Y015918D02*
X015240Y015918D01*
X015240Y015819D02*
X013560Y015819D01*
X013560Y015721D02*
X013697Y015721D01*
X013589Y015622D02*
X013560Y015622D01*
X013240Y015622D02*
X012711Y015622D01*
X012759Y015524D02*
X013240Y015524D01*
X013240Y015425D02*
X012780Y015425D01*
X012780Y015327D02*
X013240Y015327D01*
X013240Y015228D02*
X012739Y015228D01*
X012663Y015130D02*
X013240Y015130D01*
X013293Y015031D02*
X012486Y015031D01*
X012733Y014736D02*
X011810Y014736D01*
X011810Y014834D02*
X013490Y014834D01*
X013567Y014736D02*
X013588Y014736D01*
X013391Y014933D02*
X011810Y014933D01*
X011814Y015031D02*
X011745Y015031D01*
X011716Y015060D02*
X011716Y015060D01*
X011589Y015622D02*
X011560Y015622D01*
X011560Y015721D02*
X011697Y015721D01*
X011560Y015819D02*
X013240Y015819D01*
X013240Y015721D02*
X012603Y015721D01*
X012648Y016115D02*
X013240Y016115D01*
X013240Y016213D02*
X012733Y016213D01*
X012774Y016312D02*
X013335Y016312D01*
X013434Y016410D02*
X012780Y016410D01*
X012766Y016509D02*
X013532Y016509D01*
X013575Y016607D02*
X012725Y016607D01*
X012628Y016706D02*
X013672Y016706D01*
X013816Y017030D02*
X013680Y017086D01*
X013576Y017190D01*
X013520Y017326D01*
X013520Y017474D01*
X013576Y017610D01*
X013680Y017714D01*
X013816Y017770D01*
X014484Y017770D01*
X014620Y017714D01*
X014724Y017610D01*
X014780Y017474D01*
X014780Y017326D01*
X014724Y017190D01*
X014620Y017086D01*
X014484Y017030D01*
X013816Y017030D01*
X013667Y017100D02*
X012633Y017100D01*
X012620Y017086D02*
X012724Y017190D01*
X012780Y017326D01*
X012780Y017474D01*
X012724Y017610D01*
X012620Y017714D01*
X012484Y017770D01*
X011816Y017770D01*
X011680Y017714D01*
X011576Y017610D01*
X011520Y017474D01*
X011520Y017326D01*
X011576Y017190D01*
X011680Y017086D01*
X011816Y017030D01*
X012484Y017030D01*
X012620Y017086D01*
X012727Y017198D02*
X013573Y017198D01*
X013532Y017297D02*
X012768Y017297D01*
X012780Y017395D02*
X013520Y017395D01*
X013528Y017494D02*
X012772Y017494D01*
X012731Y017592D02*
X013569Y017592D01*
X013657Y017691D02*
X012643Y017691D01*
X012387Y017986D02*
X012913Y017986D01*
X012959Y017940D02*
X013341Y017940D01*
X013610Y018209D01*
X013610Y018591D01*
X013345Y018855D01*
X013955Y018855D01*
X013690Y018591D01*
X013690Y018209D01*
X013959Y017940D01*
X014341Y017940D01*
X014610Y018209D01*
X014610Y018591D01*
X014345Y018855D01*
X014955Y018855D01*
X014690Y018591D01*
X014690Y018209D01*
X014959Y017940D01*
X015341Y017940D01*
X015610Y018209D01*
X015610Y018591D01*
X015345Y018855D01*
X015955Y018855D01*
X015690Y018591D01*
X015690Y018209D01*
X015959Y017940D01*
X016341Y017940D01*
X016610Y018209D01*
X016610Y018591D01*
X016345Y018855D01*
X016955Y018855D01*
X016690Y018591D01*
X016690Y018209D01*
X016959Y017940D01*
X017341Y017940D01*
X017610Y018209D01*
X017610Y018591D01*
X017345Y018855D01*
X017955Y018855D01*
X017690Y018591D01*
X017690Y018209D01*
X017959Y017940D01*
X018341Y017940D01*
X018610Y018209D01*
X018610Y018591D01*
X018345Y018855D01*
X018955Y018855D01*
X018690Y018591D01*
X018690Y018209D01*
X018959Y017940D01*
X019341Y017940D01*
X019610Y018209D01*
X019610Y018591D01*
X019345Y018855D01*
X020105Y018855D01*
X020105Y000880D01*
X000880Y000880D01*
X000880Y018855D01*
X010955Y018855D01*
X010690Y018591D01*
X010690Y018209D01*
X010959Y017940D01*
X011341Y017940D01*
X011610Y018209D01*
X011610Y018591D01*
X011345Y018855D01*
X011955Y018855D01*
X011690Y018591D01*
X011690Y018209D01*
X011959Y017940D01*
X012341Y017940D01*
X012610Y018209D01*
X012610Y018591D01*
X012345Y018855D01*
X012955Y018855D01*
X012690Y018591D01*
X012690Y018209D01*
X012959Y017940D01*
X012815Y018085D02*
X012485Y018085D01*
X012584Y018183D02*
X012716Y018183D01*
X012690Y018282D02*
X012610Y018282D01*
X012610Y018380D02*
X012690Y018380D01*
X012690Y018479D02*
X012610Y018479D01*
X012610Y018577D02*
X012690Y018577D01*
X012775Y018676D02*
X012525Y018676D01*
X012426Y018774D02*
X012874Y018774D01*
X013426Y018774D02*
X013874Y018774D01*
X013775Y018676D02*
X013525Y018676D01*
X013610Y018577D02*
X013690Y018577D01*
X013690Y018479D02*
X013610Y018479D01*
X013610Y018380D02*
X013690Y018380D01*
X013690Y018282D02*
X013610Y018282D01*
X013584Y018183D02*
X013716Y018183D01*
X013815Y018085D02*
X013485Y018085D01*
X013387Y017986D02*
X013913Y017986D01*
X014387Y017986D02*
X014913Y017986D01*
X014815Y018085D02*
X014485Y018085D01*
X014584Y018183D02*
X014716Y018183D01*
X014690Y018282D02*
X014610Y018282D01*
X014610Y018380D02*
X014690Y018380D01*
X014690Y018479D02*
X014610Y018479D01*
X014610Y018577D02*
X014690Y018577D01*
X014775Y018676D02*
X014525Y018676D01*
X014426Y018774D02*
X014874Y018774D01*
X015426Y018774D02*
X015874Y018774D01*
X015775Y018676D02*
X015525Y018676D01*
X015610Y018577D02*
X015690Y018577D01*
X015690Y018479D02*
X015610Y018479D01*
X015610Y018380D02*
X015690Y018380D01*
X015690Y018282D02*
X015610Y018282D01*
X015584Y018183D02*
X015716Y018183D01*
X015815Y018085D02*
X015485Y018085D01*
X015387Y017986D02*
X015913Y017986D01*
X015816Y017770D02*
X015680Y017714D01*
X015576Y017610D01*
X015520Y017474D01*
X015520Y017326D01*
X015576Y017190D01*
X015680Y017086D01*
X015816Y017030D01*
X016484Y017030D01*
X016620Y017086D01*
X016724Y017190D01*
X016780Y017326D01*
X016780Y017474D01*
X016724Y017610D01*
X016620Y017714D01*
X016484Y017770D01*
X015816Y017770D01*
X015657Y017691D02*
X014643Y017691D01*
X014731Y017592D02*
X015569Y017592D01*
X015528Y017494D02*
X014772Y017494D01*
X014780Y017395D02*
X015520Y017395D01*
X015532Y017297D02*
X014768Y017297D01*
X014727Y017198D02*
X015573Y017198D01*
X015667Y017100D02*
X014633Y017100D01*
X015400Y016150D02*
X015650Y016400D01*
X016150Y016400D01*
X016628Y016706D02*
X017672Y016706D01*
X017575Y016607D02*
X016725Y016607D01*
X016766Y016509D02*
X017532Y016509D01*
X017434Y016410D02*
X016780Y016410D01*
X016774Y016312D02*
X017335Y016312D01*
X017240Y016213D02*
X016733Y016213D01*
X016648Y016115D02*
X017240Y016115D01*
X017240Y016016D02*
X015560Y016016D01*
X015560Y015918D02*
X017240Y015918D01*
X017240Y015819D02*
X015560Y015819D01*
X015560Y015721D02*
X015697Y015721D01*
X015589Y015622D02*
X015560Y015622D01*
X015240Y015622D02*
X014711Y015622D01*
X014759Y015524D02*
X015240Y015524D01*
X015240Y015425D02*
X014780Y015425D01*
X014780Y015327D02*
X015240Y015327D01*
X015240Y015228D02*
X014739Y015228D01*
X014663Y015130D02*
X015240Y015130D01*
X015293Y015031D02*
X014486Y015031D01*
X014733Y014736D02*
X014041Y014736D01*
X014060Y014637D02*
X014604Y014637D01*
X014547Y014539D02*
X014060Y014539D01*
X014060Y014440D02*
X014520Y014440D01*
X014520Y014342D02*
X014060Y014342D01*
X014060Y014243D02*
X014555Y014243D01*
X014622Y014145D02*
X014060Y014145D01*
X014060Y014046D02*
X014778Y014046D01*
X014769Y013751D02*
X014060Y013751D01*
X014060Y013849D02*
X015740Y013849D01*
X015740Y013751D02*
X015531Y013751D01*
X015681Y013652D02*
X015740Y013652D01*
X015740Y013948D02*
X014060Y013948D01*
X013740Y013948D02*
X011810Y013948D01*
X011810Y014046D02*
X012778Y014046D01*
X012622Y014145D02*
X011810Y014145D01*
X011810Y014243D02*
X012555Y014243D01*
X012520Y014342D02*
X011810Y014342D01*
X011810Y014440D02*
X012520Y014440D01*
X012547Y014539D02*
X011810Y014539D01*
X011810Y014637D02*
X012604Y014637D01*
X012769Y013751D02*
X011810Y013751D01*
X011810Y013849D02*
X013740Y013849D01*
X013740Y013751D02*
X013531Y013751D01*
X013681Y013652D02*
X013740Y013652D01*
X014060Y013652D02*
X014619Y013652D01*
X014553Y013554D02*
X014060Y013554D01*
X014060Y013455D02*
X014479Y013455D01*
X014380Y013357D02*
X014060Y013357D01*
X014060Y013258D02*
X014282Y013258D01*
X014240Y013160D02*
X014060Y013160D01*
X014060Y013061D02*
X014240Y013061D01*
X014240Y012963D02*
X014060Y012963D01*
X014060Y012864D02*
X014240Y012864D01*
X014240Y012766D02*
X014060Y012766D01*
X014060Y012667D02*
X014240Y012667D01*
X014240Y012569D02*
X014060Y012569D01*
X014060Y012470D02*
X014240Y012470D01*
X014240Y012372D02*
X014060Y012372D01*
X014060Y012273D02*
X014240Y012273D01*
X014240Y012175D02*
X014060Y012175D01*
X014052Y012076D02*
X014248Y012076D01*
X014346Y011978D02*
X013954Y011978D01*
X013855Y011879D02*
X014445Y011879D01*
X014490Y011781D02*
X013810Y011781D01*
X013810Y011682D02*
X014490Y011682D01*
X014490Y011584D02*
X013810Y011584D01*
X013810Y011485D02*
X013968Y011485D01*
X013853Y011387D02*
X013810Y011387D01*
X014332Y011485D02*
X014490Y011485D01*
X014490Y011387D02*
X014447Y011387D01*
X014650Y011900D02*
X014400Y012150D01*
X014400Y013150D01*
X014650Y013400D01*
X015150Y013400D01*
X015522Y014046D02*
X015740Y014046D01*
X015740Y014145D02*
X015678Y014145D01*
X016060Y014145D02*
X016622Y014145D01*
X016555Y014243D02*
X016060Y014243D01*
X016060Y014342D02*
X016520Y014342D01*
X016520Y014440D02*
X016060Y014440D01*
X016060Y014539D02*
X016547Y014539D01*
X016604Y014637D02*
X016060Y014637D01*
X016041Y014736D02*
X016733Y014736D01*
X016486Y015031D02*
X017293Y015031D01*
X017240Y015130D02*
X016663Y015130D01*
X016739Y015228D02*
X017240Y015228D01*
X017240Y015327D02*
X016780Y015327D01*
X016780Y015425D02*
X017240Y015425D01*
X017240Y015524D02*
X016759Y015524D01*
X016711Y015622D02*
X017240Y015622D01*
X017240Y015721D02*
X016603Y015721D01*
X017400Y016150D02*
X017400Y015150D01*
X017900Y014650D01*
X017900Y012150D01*
X017650Y011900D01*
X017650Y009900D01*
X017280Y009909D02*
X017020Y009909D01*
X017020Y009811D02*
X017280Y009811D01*
X017315Y009712D02*
X016985Y009712D01*
X016887Y009614D02*
X017413Y009614D01*
X017280Y010008D02*
X017020Y010008D01*
X016967Y010106D02*
X017333Y010106D01*
X017431Y010205D02*
X016869Y010205D01*
X016810Y010303D02*
X016997Y010303D01*
X016865Y010402D02*
X016810Y010402D01*
X016490Y010402D02*
X016435Y010402D01*
X016490Y010303D02*
X016303Y010303D01*
X016431Y010205D02*
X015869Y010205D01*
X015810Y010303D02*
X015997Y010303D01*
X015865Y010402D02*
X015810Y010402D01*
X015967Y010106D02*
X016333Y010106D01*
X016280Y010008D02*
X016020Y010008D01*
X016020Y009909D02*
X016280Y009909D01*
X016280Y009811D02*
X016020Y009811D01*
X015985Y009712D02*
X016315Y009712D01*
X016413Y009614D02*
X015887Y009614D01*
X015650Y009900D02*
X015650Y011900D01*
X015900Y012150D01*
X015900Y014650D01*
X015400Y015150D01*
X015400Y016150D01*
X015591Y016115D02*
X015652Y016115D01*
X015240Y015721D02*
X014603Y015721D01*
X013814Y015031D02*
X013745Y015031D01*
X013844Y014933D02*
X015391Y014933D01*
X015490Y014834D02*
X013942Y014834D01*
X013740Y014145D02*
X013678Y014145D01*
X013740Y014046D02*
X013522Y014046D01*
X013150Y013400D02*
X012650Y013400D01*
X012400Y013150D01*
X012400Y012150D01*
X012650Y011900D01*
X012650Y009900D01*
X011997Y010303D02*
X011810Y010303D01*
X011810Y010402D02*
X011865Y010402D01*
X011490Y010402D02*
X011484Y010402D01*
X011490Y010303D02*
X011384Y010303D01*
X011431Y010205D02*
X010810Y010205D01*
X010810Y010303D02*
X010916Y010303D01*
X010816Y010402D02*
X010810Y010402D01*
X010810Y010106D02*
X011333Y010106D01*
X011280Y010008D02*
X010810Y010008D01*
X010867Y009909D02*
X011280Y009909D01*
X011280Y009811D02*
X010966Y009811D01*
X011064Y009712D02*
X011315Y009712D01*
X011413Y009614D02*
X011163Y009614D01*
X011261Y009515D02*
X020105Y009515D01*
X020105Y009417D02*
X011360Y009417D01*
X011458Y009318D02*
X020105Y009318D01*
X020105Y009220D02*
X011557Y009220D01*
X011655Y009121D02*
X020105Y009121D01*
X020105Y009023D02*
X011754Y009023D01*
X011852Y008924D02*
X020105Y008924D01*
X020105Y008826D02*
X011951Y008826D01*
X012049Y008727D02*
X020105Y008727D01*
X020105Y008629D02*
X012148Y008629D01*
X011892Y008432D02*
X011845Y008432D01*
X011794Y008530D02*
X011746Y008530D01*
X011695Y008629D02*
X011648Y008629D01*
X011597Y008727D02*
X011549Y008727D01*
X011498Y008826D02*
X011451Y008826D01*
X011400Y008924D02*
X011352Y008924D01*
X011301Y009023D02*
X011254Y009023D01*
X011203Y009121D02*
X011155Y009121D01*
X011104Y009220D02*
X011057Y009220D01*
X011006Y009318D02*
X010958Y009318D01*
X010907Y009417D02*
X010860Y009417D01*
X010809Y009515D02*
X010761Y009515D01*
X010710Y009614D02*
X010663Y009614D01*
X010612Y009712D02*
X010564Y009712D01*
X010513Y009811D02*
X010466Y009811D01*
X010490Y009909D02*
X010367Y009909D01*
X010269Y010008D02*
X010490Y010008D01*
X010490Y010106D02*
X010170Y010106D01*
X010072Y010205D02*
X010490Y010205D01*
X010490Y010303D02*
X009973Y010303D01*
X009875Y010402D02*
X010490Y010402D01*
X010490Y010500D02*
X009776Y010500D01*
X009678Y010599D02*
X010490Y010599D01*
X010490Y010697D02*
X009579Y010697D01*
X010810Y011485D02*
X010900Y011485D01*
X010810Y011584D02*
X011490Y011584D01*
X011490Y011682D02*
X010810Y011682D01*
X010810Y011781D02*
X011490Y011781D01*
X011490Y011879D02*
X010810Y011879D01*
X010810Y011978D02*
X011490Y011978D01*
X011490Y012076D02*
X010810Y012076D01*
X010810Y012175D02*
X011490Y012175D01*
X011490Y012273D02*
X010810Y012273D01*
X010810Y012372D02*
X011490Y012372D01*
X011490Y012470D02*
X010806Y012470D01*
X010708Y012569D02*
X011490Y012569D01*
X011490Y012667D02*
X010609Y012667D01*
X009807Y013160D02*
X008989Y013160D01*
X009060Y013230D02*
X009060Y013370D01*
X008680Y013370D01*
X008680Y013430D01*
X008620Y013430D01*
X008620Y013810D01*
X008480Y013810D01*
X008240Y013570D01*
X008240Y013430D01*
X008620Y013430D01*
X008620Y013370D01*
X008240Y013370D01*
X008240Y013230D01*
X008480Y012990D01*
X008620Y012990D01*
X008620Y013370D01*
X008680Y013370D01*
X008680Y012990D01*
X008820Y012990D01*
X009060Y013230D01*
X009060Y013258D02*
X009780Y013258D01*
X009669Y013357D02*
X009060Y013357D01*
X009060Y013430D02*
X009060Y013570D01*
X008820Y013810D01*
X008680Y013810D01*
X008680Y013430D01*
X009060Y013430D01*
X009060Y013455D02*
X009617Y013455D01*
X009591Y013554D02*
X009060Y013554D01*
X008978Y013652D02*
X009591Y013652D01*
X009622Y013751D02*
X008879Y013751D01*
X008680Y013751D02*
X008620Y013751D01*
X008620Y013652D02*
X008680Y013652D01*
X008680Y013554D02*
X008620Y013554D01*
X008620Y013455D02*
X008680Y013455D01*
X008650Y013400D02*
X008650Y012650D01*
X008620Y013061D02*
X008680Y013061D01*
X008680Y013160D02*
X008620Y013160D01*
X008620Y013258D02*
X008680Y013258D01*
X008680Y013357D02*
X008620Y013357D01*
X008650Y013400D02*
X008650Y017400D01*
X008400Y017150D02*
X003650Y017150D01*
X002650Y017150D01*
X002680Y017180D02*
X002620Y017180D01*
X002620Y017560D01*
X002480Y017560D01*
X002240Y017320D01*
X002240Y017180D01*
X002620Y017180D01*
X002620Y017120D01*
X002240Y017120D01*
X002240Y016980D01*
X002480Y016740D01*
X002620Y016740D01*
X002620Y017120D01*
X002680Y017120D01*
X002680Y017180D01*
X002680Y017560D01*
X002820Y017560D01*
X003060Y017320D01*
X003060Y017180D01*
X002680Y017180D01*
X002680Y017198D02*
X002620Y017198D01*
X002680Y017120D02*
X003060Y017120D01*
X003060Y016980D01*
X002820Y016740D01*
X002680Y016740D01*
X002680Y017120D01*
X002680Y017100D02*
X002620Y017100D01*
X002620Y017001D02*
X002680Y017001D01*
X002680Y016903D02*
X002620Y016903D01*
X002620Y016804D02*
X002680Y016804D01*
X002884Y016804D02*
X003416Y016804D01*
X003480Y016740D02*
X003240Y016980D01*
X003240Y017120D01*
X003620Y017120D01*
X003620Y017180D01*
X003620Y017560D01*
X003480Y017560D01*
X003240Y017320D01*
X003240Y017180D01*
X003620Y017180D01*
X003680Y017180D01*
X003680Y017560D01*
X003820Y017560D01*
X004060Y017320D01*
X004060Y017180D01*
X003680Y017180D01*
X003680Y017120D01*
X004060Y017120D01*
X004060Y016980D01*
X003820Y016740D01*
X003680Y016740D01*
X003680Y017120D01*
X003620Y017120D01*
X003620Y016740D01*
X003480Y016740D01*
X003620Y016804D02*
X003680Y016804D01*
X003680Y016903D02*
X003620Y016903D01*
X003620Y017001D02*
X003680Y017001D01*
X003680Y017100D02*
X003620Y017100D01*
X003620Y017198D02*
X003680Y017198D01*
X003680Y017297D02*
X003620Y017297D01*
X003620Y017395D02*
X003680Y017395D01*
X003680Y017494D02*
X003620Y017494D01*
X003414Y017494D02*
X002886Y017494D01*
X002985Y017395D02*
X003315Y017395D01*
X003240Y017297D02*
X003060Y017297D01*
X003060Y017198D02*
X003240Y017198D01*
X003240Y017100D02*
X003060Y017100D01*
X003060Y017001D02*
X003240Y017001D01*
X003318Y016903D02*
X002982Y016903D01*
X002680Y017297D02*
X002620Y017297D01*
X002620Y017395D02*
X002680Y017395D01*
X002680Y017494D02*
X002620Y017494D01*
X002414Y017494D02*
X001709Y017494D01*
X001709Y017456D02*
X001650Y017313D01*
X001540Y017203D01*
X001397Y017144D01*
X001242Y017144D01*
X001098Y017203D01*
X000989Y017313D01*
X000929Y017456D01*
X000929Y017611D01*
X000989Y017755D01*
X001098Y017864D01*
X001242Y017924D01*
X001397Y017924D01*
X001540Y017864D01*
X001650Y017755D01*
X001709Y017611D01*
X001709Y017456D01*
X001684Y017395D02*
X002315Y017395D01*
X002240Y017297D02*
X001634Y017297D01*
X001528Y017198D02*
X002240Y017198D01*
X002240Y017100D02*
X001486Y017100D01*
X001540Y017077D02*
X001397Y017136D01*
X001242Y017136D01*
X001098Y017077D01*
X000989Y016967D01*
X000929Y016824D01*
X000929Y016669D01*
X000989Y016526D01*
X001098Y016416D01*
X001242Y016356D01*
X001397Y016356D01*
X001540Y016416D01*
X001650Y016526D01*
X001709Y016669D01*
X001709Y016824D01*
X001650Y016967D01*
X001540Y017077D01*
X001616Y017001D02*
X002240Y017001D01*
X002318Y016903D02*
X001677Y016903D01*
X001709Y016804D02*
X002416Y016804D01*
X001709Y016706D02*
X009591Y016706D01*
X009591Y016804D02*
X003884Y016804D01*
X003982Y016903D02*
X009623Y016903D01*
X009684Y017001D02*
X004060Y017001D01*
X004060Y017100D02*
X009814Y017100D01*
X009903Y017144D02*
X010058Y017144D01*
X010202Y017203D01*
X010311Y017313D01*
X010371Y017456D01*
X010371Y017611D01*
X010311Y017755D01*
X010202Y017864D01*
X010098Y017907D01*
X010146Y017923D01*
X010206Y017953D01*
X010261Y017993D01*
X010309Y018041D01*
X010348Y018096D01*
X010379Y018156D01*
X010400Y018221D01*
X010411Y018287D01*
X010411Y018302D01*
X010000Y018302D01*
X010000Y018340D01*
X010411Y018340D01*
X010411Y018355D01*
X010400Y018422D01*
X010379Y018486D01*
X010348Y018547D01*
X010309Y018601D01*
X010261Y018649D01*
X010206Y018689D01*
X010146Y018720D01*
X010081Y018741D01*
X010015Y018751D01*
X010000Y018751D01*
X010000Y018340D01*
X009962Y018340D01*
X009962Y018302D01*
X009551Y018302D01*
X009551Y018287D01*
X009561Y018221D01*
X009582Y018156D01*
X009613Y018096D01*
X009653Y018041D01*
X009701Y017993D01*
X009755Y017953D01*
X009816Y017923D01*
X009863Y017907D01*
X009760Y017864D01*
X009650Y017755D01*
X009591Y017611D01*
X009591Y017456D01*
X009650Y017313D01*
X009760Y017203D01*
X009903Y017144D01*
X009772Y017198D02*
X004060Y017198D01*
X004060Y017297D02*
X009666Y017297D01*
X009616Y017395D02*
X003985Y017395D01*
X003886Y017494D02*
X009591Y017494D01*
X009591Y017592D02*
X001709Y017592D01*
X001677Y017691D02*
X009623Y017691D01*
X009684Y017789D02*
X001616Y017789D01*
X001485Y017888D02*
X009815Y017888D01*
X009711Y017986D02*
X001529Y017986D01*
X001540Y017991D02*
X001650Y018100D01*
X001709Y018244D01*
X001709Y018399D01*
X001650Y018542D01*
X001540Y018652D01*
X001397Y018711D01*
X001242Y018711D01*
X001098Y018652D01*
X000989Y018542D01*
X000929Y018399D01*
X000929Y018244D01*
X000989Y018100D01*
X001098Y017991D01*
X001242Y017931D01*
X001397Y017931D01*
X001540Y017991D01*
X001634Y018085D02*
X009621Y018085D01*
X009573Y018183D02*
X001684Y018183D01*
X001709Y018282D02*
X009552Y018282D01*
X009551Y018340D02*
X009962Y018340D01*
X009962Y018751D01*
X009947Y018751D01*
X009880Y018741D01*
X009816Y018720D01*
X009755Y018689D01*
X009701Y018649D01*
X009653Y018601D01*
X009613Y018547D01*
X009582Y018486D01*
X009561Y018422D01*
X009551Y018355D01*
X009551Y018340D01*
X009555Y018380D02*
X001709Y018380D01*
X001676Y018479D02*
X009580Y018479D01*
X009635Y018577D02*
X001615Y018577D01*
X001483Y018676D02*
X009737Y018676D01*
X009962Y018676D02*
X010000Y018676D01*
X010000Y018577D02*
X009962Y018577D01*
X009962Y018479D02*
X010000Y018479D01*
X010000Y018380D02*
X009962Y018380D01*
X009981Y018321D02*
X009321Y018321D01*
X009150Y018150D01*
X008900Y018150D01*
X008650Y017900D01*
X010146Y017888D02*
X020105Y017888D01*
X020105Y017986D02*
X019387Y017986D01*
X019485Y018085D02*
X020105Y018085D01*
X020105Y018183D02*
X019584Y018183D01*
X019610Y018282D02*
X020105Y018282D01*
X020105Y018380D02*
X019610Y018380D01*
X019610Y018479D02*
X020105Y018479D01*
X020105Y018577D02*
X019610Y018577D01*
X019525Y018676D02*
X020105Y018676D01*
X020105Y018774D02*
X019426Y018774D01*
X018874Y018774D02*
X018426Y018774D01*
X018525Y018676D02*
X018775Y018676D01*
X018690Y018577D02*
X018610Y018577D01*
X018610Y018479D02*
X018690Y018479D01*
X018690Y018380D02*
X018610Y018380D01*
X018610Y018282D02*
X018690Y018282D01*
X018716Y018183D02*
X018584Y018183D01*
X018485Y018085D02*
X018815Y018085D01*
X018913Y017986D02*
X018387Y017986D01*
X018484Y017770D02*
X017816Y017770D01*
X017680Y017714D01*
X017576Y017610D01*
X017520Y017474D01*
X017520Y017326D01*
X017576Y017190D01*
X017680Y017086D01*
X017816Y017030D01*
X018484Y017030D01*
X018620Y017086D01*
X018724Y017190D01*
X018780Y017326D01*
X018780Y017474D01*
X018724Y017610D01*
X018620Y017714D01*
X018484Y017770D01*
X018643Y017691D02*
X020105Y017691D01*
X020105Y017789D02*
X010277Y017789D01*
X010338Y017691D02*
X011657Y017691D01*
X011569Y017592D02*
X010371Y017592D01*
X010371Y017494D02*
X011528Y017494D01*
X011520Y017395D02*
X010345Y017395D01*
X010295Y017297D02*
X011532Y017297D01*
X011573Y017198D02*
X010189Y017198D01*
X010147Y017100D02*
X011667Y017100D01*
X011913Y017986D02*
X011387Y017986D01*
X011485Y018085D02*
X011815Y018085D01*
X011716Y018183D02*
X011584Y018183D01*
X011610Y018282D02*
X011690Y018282D01*
X011690Y018380D02*
X011610Y018380D01*
X011610Y018479D02*
X011690Y018479D01*
X011690Y018577D02*
X011610Y018577D01*
X011525Y018676D02*
X011775Y018676D01*
X011874Y018774D02*
X011426Y018774D01*
X010874Y018774D02*
X000880Y018774D01*
X000880Y018676D02*
X001155Y018676D01*
X001024Y018577D02*
X000880Y018577D01*
X000880Y018479D02*
X000962Y018479D01*
X000929Y018380D02*
X000880Y018380D01*
X000880Y018282D02*
X000929Y018282D01*
X000954Y018183D02*
X000880Y018183D01*
X000880Y018085D02*
X001004Y018085D01*
X001109Y017986D02*
X000880Y017986D01*
X000880Y017888D02*
X001154Y017888D01*
X001023Y017789D02*
X000880Y017789D01*
X000880Y017691D02*
X000962Y017691D01*
X000929Y017592D02*
X000880Y017592D01*
X000880Y017494D02*
X000929Y017494D01*
X000955Y017395D02*
X000880Y017395D01*
X000880Y017297D02*
X001005Y017297D01*
X001111Y017198D02*
X000880Y017198D01*
X000880Y017100D02*
X001153Y017100D01*
X001022Y017001D02*
X000880Y017001D01*
X000880Y016903D02*
X000962Y016903D01*
X000929Y016804D02*
X000880Y016804D01*
X000880Y016706D02*
X000929Y016706D01*
X000955Y016607D02*
X000880Y016607D01*
X000880Y016509D02*
X001006Y016509D01*
X001112Y016410D02*
X000880Y016410D01*
X000880Y016312D02*
X001151Y016312D01*
X001098Y016290D02*
X000989Y016180D01*
X000929Y016037D01*
X000929Y015881D01*
X000989Y015738D01*
X001098Y015628D01*
X001242Y015569D01*
X001397Y015569D01*
X001540Y015628D01*
X001650Y015738D01*
X001709Y015881D01*
X001709Y016037D01*
X001650Y016180D01*
X001540Y016290D01*
X001397Y016349D01*
X001242Y016349D01*
X001098Y016290D01*
X001022Y016213D02*
X000880Y016213D01*
X000880Y016115D02*
X000962Y016115D01*
X000929Y016016D02*
X000880Y016016D01*
X000880Y015918D02*
X000929Y015918D01*
X000955Y015819D02*
X000880Y015819D01*
X000880Y015721D02*
X001006Y015721D01*
X001114Y015622D02*
X000880Y015622D01*
X000880Y015524D02*
X001150Y015524D01*
X001098Y015502D02*
X000989Y015393D01*
X000929Y015249D01*
X000929Y015094D01*
X000989Y014951D01*
X001098Y014841D01*
X001242Y014782D01*
X001397Y014782D01*
X001540Y014841D01*
X001650Y014951D01*
X001709Y015094D01*
X001709Y015249D01*
X001650Y015393D01*
X001540Y015502D01*
X001397Y015562D01*
X001242Y015562D01*
X001098Y015502D01*
X001021Y015425D02*
X000880Y015425D01*
X000880Y015327D02*
X000961Y015327D01*
X000929Y015228D02*
X000880Y015228D01*
X000880Y015130D02*
X000929Y015130D01*
X000955Y015031D02*
X000880Y015031D01*
X000880Y014933D02*
X001007Y014933D01*
X001115Y014834D02*
X000880Y014834D01*
X000880Y014736D02*
X001148Y014736D01*
X001098Y014715D02*
X000989Y014605D01*
X000929Y014462D01*
X000929Y014307D01*
X000989Y014163D01*
X001098Y014054D01*
X001242Y013994D01*
X001397Y013994D01*
X001540Y014054D01*
X001650Y014163D01*
X001709Y014307D01*
X001709Y014462D01*
X001650Y014605D01*
X001540Y014715D01*
X001397Y014774D01*
X001242Y014774D01*
X001098Y014715D01*
X001021Y014637D02*
X000880Y014637D01*
X000880Y014539D02*
X000961Y014539D01*
X000929Y014440D02*
X000880Y014440D01*
X000880Y014342D02*
X000929Y014342D01*
X000956Y014243D02*
X000880Y014243D01*
X000880Y014145D02*
X001007Y014145D01*
X001117Y014046D02*
X000880Y014046D01*
X000880Y013948D02*
X001147Y013948D01*
X001098Y013927D02*
X000989Y013818D01*
X000929Y013674D01*
X000929Y013519D01*
X000989Y013376D01*
X001098Y013266D01*
X001242Y013207D01*
X001397Y013207D01*
X001540Y013266D01*
X001650Y013376D01*
X001709Y013519D01*
X001709Y013674D01*
X001650Y013818D01*
X001540Y013927D01*
X001397Y013987D01*
X001242Y013987D01*
X001098Y013927D01*
X001020Y013849D02*
X000880Y013849D01*
X000880Y013751D02*
X000961Y013751D01*
X000929Y013652D02*
X000880Y013652D01*
X000880Y013554D02*
X000929Y013554D01*
X000956Y013455D02*
X000880Y013455D01*
X000880Y013357D02*
X001008Y013357D01*
X001118Y013258D02*
X000880Y013258D01*
X000880Y013160D02*
X001145Y013160D01*
X001098Y013140D02*
X000989Y013030D01*
X000929Y012887D01*
X000929Y012732D01*
X000989Y012589D01*
X001098Y012479D01*
X001242Y012419D01*
X001397Y012419D01*
X001540Y012479D01*
X001650Y012589D01*
X001709Y012732D01*
X001709Y012887D01*
X001650Y013030D01*
X001540Y013140D01*
X001397Y013199D01*
X001242Y013199D01*
X001098Y013140D01*
X001019Y013061D02*
X000880Y013061D01*
X000880Y012963D02*
X000961Y012963D01*
X000929Y012864D02*
X000880Y012864D01*
X000880Y012766D02*
X000929Y012766D01*
X000956Y012667D02*
X000880Y012667D01*
X000880Y012569D02*
X001009Y012569D01*
X001120Y012470D02*
X000880Y012470D01*
X000880Y012372D02*
X001144Y012372D01*
X001019Y012273D02*
X000880Y012273D01*
X000880Y012175D02*
X000960Y012175D01*
X000929Y012076D02*
X000880Y012076D01*
X000880Y011978D02*
X000929Y011978D01*
X000956Y011879D02*
X000880Y011879D01*
X000880Y011781D02*
X001009Y011781D01*
X001121Y011682D02*
X000880Y011682D01*
X000880Y011584D02*
X001142Y011584D01*
X001098Y011565D02*
X000989Y011456D01*
X000929Y011312D01*
X000929Y011157D01*
X000989Y011014D01*
X001098Y010904D01*
X001242Y010845D01*
X001397Y010845D01*
X001540Y010904D01*
X001650Y011014D01*
X001709Y011157D01*
X001709Y011312D01*
X001650Y011456D01*
X001540Y011565D01*
X001397Y011625D01*
X001242Y011625D01*
X001098Y011565D01*
X001018Y011485D02*
X000880Y011485D01*
X000880Y011387D02*
X000960Y011387D01*
X000929Y011288D02*
X000880Y011288D01*
X000880Y011190D02*
X000929Y011190D01*
X000957Y011091D02*
X000880Y011091D01*
X000880Y010993D02*
X001010Y010993D01*
X001123Y010894D02*
X000880Y010894D01*
X000880Y010796D02*
X008420Y010796D01*
X008420Y010894D02*
X001516Y010894D01*
X001629Y010993D02*
X008420Y010993D01*
X008420Y011091D02*
X001682Y011091D01*
X001709Y011190D02*
X008337Y011190D01*
X008280Y011288D02*
X001709Y011288D01*
X001679Y011387D02*
X008280Y011387D01*
X008280Y011485D02*
X001620Y011485D01*
X001496Y011584D02*
X008310Y011584D01*
X008409Y011682D02*
X001518Y011682D01*
X001495Y012372D02*
X002405Y012372D01*
X002497Y012280D02*
X002280Y012497D01*
X002280Y012803D01*
X002497Y013020D01*
X002803Y013020D01*
X003020Y012803D01*
X003020Y012497D01*
X002803Y012280D01*
X002497Y012280D01*
X002307Y012470D02*
X001519Y012470D01*
X001630Y012569D02*
X002280Y012569D01*
X002280Y012667D02*
X001682Y012667D01*
X001709Y012766D02*
X002280Y012766D01*
X002341Y012864D02*
X001709Y012864D01*
X001678Y012963D02*
X002439Y012963D01*
X002861Y012963D02*
X003439Y012963D01*
X003341Y012864D02*
X002959Y012864D01*
X003020Y012766D02*
X003280Y012766D01*
X003280Y012667D02*
X003020Y012667D01*
X003020Y012569D02*
X003280Y012569D01*
X003307Y012470D02*
X002993Y012470D01*
X002895Y012372D02*
X003405Y012372D01*
X004020Y012766D02*
X009591Y012766D01*
X009591Y012864D02*
X003959Y012864D01*
X003861Y012963D02*
X009622Y012963D01*
X009681Y013061D02*
X008891Y013061D01*
X008409Y013061D02*
X001619Y013061D01*
X001493Y013160D02*
X008311Y013160D01*
X008240Y013258D02*
X001520Y013258D01*
X001631Y013357D02*
X008240Y013357D01*
X008240Y013455D02*
X001683Y013455D01*
X001709Y013554D02*
X008240Y013554D01*
X008322Y013652D02*
X001709Y013652D01*
X001678Y013751D02*
X008421Y013751D01*
X009681Y013849D02*
X003872Y013849D01*
X003803Y013780D02*
X004020Y013997D01*
X004020Y014303D01*
X003803Y014520D01*
X003497Y014520D01*
X003280Y014303D01*
X003280Y013997D01*
X003497Y013780D01*
X003803Y013780D01*
X003971Y013948D02*
X009808Y013948D01*
X009778Y014046D02*
X004020Y014046D01*
X004020Y014145D02*
X009669Y014145D01*
X009617Y014243D02*
X004020Y014243D01*
X003982Y014342D02*
X009591Y014342D01*
X009591Y014440D02*
X003883Y014440D01*
X003417Y014440D02*
X002883Y014440D01*
X002803Y014520D02*
X002497Y014520D01*
X002280Y014303D01*
X002280Y013997D01*
X002497Y013780D01*
X002803Y013780D01*
X003020Y013997D01*
X003020Y014303D01*
X002803Y014520D01*
X002982Y014342D02*
X003318Y014342D01*
X003280Y014243D02*
X003020Y014243D01*
X003020Y014145D02*
X003280Y014145D01*
X003280Y014046D02*
X003020Y014046D01*
X002971Y013948D02*
X003329Y013948D01*
X003428Y013849D02*
X002872Y013849D01*
X002428Y013849D02*
X001619Y013849D01*
X001492Y013948D02*
X002329Y013948D01*
X002280Y014046D02*
X001522Y014046D01*
X001631Y014145D02*
X002280Y014145D01*
X002280Y014243D02*
X001683Y014243D01*
X001709Y014342D02*
X002318Y014342D01*
X002417Y014440D02*
X001709Y014440D01*
X001678Y014539D02*
X009622Y014539D01*
X009682Y014637D02*
X001618Y014637D01*
X001490Y014736D02*
X009810Y014736D01*
X009777Y014834D02*
X001523Y014834D01*
X001632Y014933D02*
X009668Y014933D01*
X009617Y015031D02*
X001683Y015031D01*
X001709Y015130D02*
X009591Y015130D01*
X009591Y015228D02*
X001709Y015228D01*
X001677Y015327D02*
X009623Y015327D01*
X009683Y015425D02*
X001617Y015425D01*
X001489Y015524D02*
X009811Y015524D01*
X009775Y015622D02*
X001525Y015622D01*
X001632Y015721D02*
X009668Y015721D01*
X009617Y015819D02*
X001683Y015819D01*
X001709Y015918D02*
X009591Y015918D01*
X009591Y016016D02*
X001709Y016016D01*
X001677Y016115D02*
X009623Y016115D01*
X009683Y016213D02*
X001617Y016213D01*
X001487Y016312D02*
X009813Y016312D01*
X009774Y016410D02*
X001526Y016410D01*
X001633Y016509D02*
X009667Y016509D01*
X009616Y016607D02*
X001684Y016607D01*
X000880Y010697D02*
X008420Y010697D01*
X008420Y010599D02*
X000880Y010599D01*
X000880Y010500D02*
X008420Y010500D01*
X008420Y010402D02*
X000880Y010402D01*
X000880Y010303D02*
X008420Y010303D01*
X008420Y010205D02*
X000880Y010205D01*
X000880Y008432D02*
X001371Y008432D01*
X001388Y008437D02*
X001310Y008412D01*
X001237Y008375D01*
X001171Y008327D01*
X001113Y008269D01*
X001065Y008203D01*
X001028Y008130D01*
X001003Y008052D01*
X000991Y007980D01*
X001460Y007980D01*
X001460Y008449D01*
X001388Y008437D01*
X001460Y008432D02*
X001560Y008432D01*
X001560Y008449D02*
X001560Y007980D01*
X001460Y007980D01*
X001460Y007880D01*
X000991Y007880D01*
X001003Y007808D01*
X001028Y007730D01*
X001065Y007657D01*
X001113Y007591D01*
X001171Y007533D01*
X001237Y007485D01*
X001310Y007448D01*
X001388Y007423D01*
X001460Y007411D01*
X001460Y007880D01*
X001560Y007880D01*
X001560Y007980D01*
X002029Y007980D01*
X002017Y008052D01*
X001992Y008130D01*
X001955Y008203D01*
X001907Y008269D01*
X001849Y008327D01*
X001783Y008375D01*
X001710Y008412D01*
X001632Y008437D01*
X001560Y008449D01*
X001649Y008432D02*
X007408Y008432D01*
X007310Y008333D02*
X003566Y008333D01*
X003770Y007939D02*
X007338Y007939D01*
X007436Y007841D02*
X003770Y007841D01*
X003732Y007742D02*
X009983Y007742D01*
X010081Y007644D02*
X003682Y007644D01*
X003584Y007545D02*
X010180Y007545D01*
X010278Y007447D02*
X003450Y007447D01*
X003450Y007348D02*
X010377Y007348D01*
X010420Y007250D02*
X003450Y007250D01*
X003450Y007151D02*
X005437Y007151D01*
X005465Y007179D02*
X005367Y007081D01*
X005314Y006953D01*
X005314Y006815D01*
X005367Y006687D01*
X005465Y006589D01*
X005593Y006536D01*
X006207Y006536D01*
X006335Y006589D01*
X006433Y006687D01*
X006486Y006815D01*
X006486Y006953D01*
X006433Y007081D01*
X006335Y007179D01*
X006207Y007232D01*
X005593Y007232D01*
X005465Y007179D01*
X005355Y007053D02*
X003450Y007053D01*
X003450Y006954D02*
X005315Y006954D01*
X005314Y006856D02*
X003450Y006856D01*
X003450Y006757D02*
X005338Y006757D01*
X005396Y006659D02*
X003450Y006659D01*
X003450Y006560D02*
X005536Y006560D01*
X006264Y006560D02*
X009188Y006560D01*
X009160Y006627D02*
X009235Y006447D01*
X009372Y006309D01*
X009553Y006235D01*
X009747Y006235D01*
X009928Y006309D01*
X010065Y006447D01*
X010140Y006627D01*
X010140Y006822D01*
X010065Y007002D01*
X009928Y007140D01*
X009747Y007215D01*
X009553Y007215D01*
X009372Y007140D01*
X009235Y007002D01*
X009160Y006822D01*
X009160Y006627D01*
X009160Y006659D02*
X006404Y006659D01*
X006462Y006757D02*
X009160Y006757D01*
X009174Y006856D02*
X006486Y006856D01*
X006485Y006954D02*
X009215Y006954D01*
X009285Y007053D02*
X006445Y007053D01*
X006363Y007151D02*
X009399Y007151D01*
X009901Y007151D02*
X010420Y007151D01*
X010420Y007053D02*
X010015Y007053D01*
X010085Y006954D02*
X010420Y006954D01*
X010420Y006856D02*
X010126Y006856D01*
X010140Y006757D02*
X010420Y006757D01*
X010420Y006659D02*
X010140Y006659D01*
X010112Y006560D02*
X010420Y006560D01*
X010420Y006462D02*
X010071Y006462D01*
X009981Y006363D02*
X010420Y006363D01*
X010420Y006265D02*
X009819Y006265D01*
X009481Y006265D02*
X003450Y006265D01*
X003450Y006363D02*
X009319Y006363D01*
X009229Y006462D02*
X003450Y006462D01*
X003450Y006166D02*
X010420Y006166D01*
X010420Y006068D02*
X003450Y006068D01*
X003450Y005969D02*
X010420Y005969D01*
X010420Y005871D02*
X003450Y005871D01*
X003567Y005772D02*
X010420Y005772D01*
X010420Y005674D02*
X003665Y005674D01*
X003725Y005575D02*
X010420Y005575D01*
X010420Y005477D02*
X003765Y005477D01*
X003770Y005378D02*
X010420Y005378D01*
X010420Y005280D02*
X003770Y005280D01*
X003731Y005181D02*
X005436Y005181D01*
X005465Y005211D02*
X005367Y005113D01*
X005314Y004985D01*
X005314Y004847D01*
X005367Y004719D01*
X005465Y004621D01*
X005593Y004568D01*
X006207Y004568D01*
X006335Y004621D01*
X006433Y004719D01*
X006486Y004847D01*
X006486Y004985D01*
X006433Y005113D01*
X006335Y005211D01*
X006207Y005264D01*
X005593Y005264D01*
X005465Y005211D01*
X005355Y005083D02*
X003681Y005083D01*
X003583Y004984D02*
X005314Y004984D01*
X005314Y004886D02*
X001702Y004886D01*
X001560Y004886D02*
X001460Y004886D01*
X001460Y004984D02*
X001560Y004984D01*
X001560Y005083D02*
X001460Y005083D01*
X001460Y005181D02*
X001560Y005181D01*
X001560Y005280D02*
X001460Y005280D01*
X001460Y005378D02*
X000880Y005378D01*
X000880Y005280D02*
X000998Y005280D01*
X001025Y005181D02*
X000880Y005181D01*
X000880Y005083D02*
X001076Y005083D01*
X001161Y004984D02*
X000880Y004984D01*
X000880Y004886D02*
X001318Y004886D01*
X000880Y004787D02*
X005339Y004787D01*
X005398Y004689D02*
X000880Y004689D01*
X000880Y004590D02*
X002246Y004590D01*
X002059Y004492D02*
X000880Y004492D01*
X000880Y004393D02*
X001960Y004393D01*
X001909Y004295D02*
X000880Y004295D01*
X000880Y004196D02*
X001868Y004196D01*
X001860Y004098D02*
X000880Y004098D01*
X000880Y003999D02*
X001860Y003999D01*
X001885Y003901D02*
X000880Y003901D01*
X000880Y003802D02*
X001926Y003802D01*
X002002Y003704D02*
X000880Y003704D01*
X000880Y002226D02*
X001341Y002226D01*
X001191Y002128D02*
X000880Y002128D01*
X000880Y002029D02*
X001093Y002029D01*
X001030Y001931D02*
X000880Y001931D01*
X000880Y001832D02*
X000989Y001832D01*
X000949Y001734D02*
X000880Y001734D01*
X000880Y001635D02*
X000949Y001635D01*
X000949Y001537D02*
X000880Y001537D01*
X000880Y001438D02*
X000956Y001438D01*
X000997Y001340D02*
X000880Y001340D01*
X000880Y001241D02*
X001038Y001241D01*
X001111Y001143D02*
X000880Y001143D01*
X000880Y001044D02*
X001209Y001044D01*
X001385Y000946D02*
X000880Y000946D01*
X002967Y002817D02*
X006455Y002817D01*
X007020Y003408D02*
X005020Y003408D01*
X005020Y003310D02*
X007118Y003310D01*
X007217Y003211D02*
X004984Y003211D01*
X005020Y003507D02*
X006960Y003507D01*
X006960Y003605D02*
X004968Y003605D01*
X004870Y003704D02*
X006960Y003704D01*
X006960Y003802D02*
X002874Y003802D01*
X002915Y003901D02*
X007028Y003901D01*
X007127Y003999D02*
X002940Y003999D01*
X002940Y004098D02*
X007710Y004098D01*
X007710Y004196D02*
X002932Y004196D01*
X002891Y004295D02*
X007710Y004295D01*
X007771Y004393D02*
X002840Y004393D01*
X002741Y004492D02*
X007869Y004492D01*
X007710Y003999D02*
X007673Y003999D01*
X007772Y003901D02*
X007777Y003901D01*
X007840Y003802D02*
X007876Y003802D01*
X008424Y003802D02*
X009214Y003802D01*
X009282Y003901D02*
X008523Y003901D01*
X008590Y003999D02*
X009393Y003999D01*
X009907Y003999D02*
X009924Y003999D01*
X010022Y004098D02*
X008590Y004098D01*
X008590Y004196D02*
X010121Y004196D01*
X010219Y004295D02*
X008590Y004295D01*
X008529Y004393D02*
X010318Y004393D01*
X010416Y004492D02*
X008431Y004492D01*
X008630Y003014D02*
X011538Y003014D01*
X011762Y003014D02*
X012538Y003014D01*
X012576Y003030D02*
X012440Y002974D01*
X012336Y002870D01*
X012280Y002734D01*
X012280Y002066D01*
X012336Y001930D01*
X012440Y001826D01*
X012576Y001770D01*
X012724Y001770D01*
X012860Y001826D01*
X012964Y001930D01*
X013020Y002066D01*
X013020Y002734D01*
X012964Y002870D01*
X012860Y002974D01*
X012724Y003030D01*
X012576Y003030D01*
X012762Y003014D02*
X013538Y003014D01*
X013576Y003030D02*
X013440Y002974D01*
X013336Y002870D01*
X013280Y002734D01*
X013280Y002066D01*
X013336Y001930D01*
X013440Y001826D01*
X013576Y001770D01*
X013724Y001770D01*
X013860Y001826D01*
X013964Y001930D01*
X014020Y002066D01*
X014020Y002734D01*
X013964Y002870D01*
X013860Y002974D01*
X013724Y003030D01*
X013576Y003030D01*
X013762Y003014D02*
X014538Y003014D01*
X014576Y003030D02*
X014440Y002974D01*
X014336Y002870D01*
X014280Y002734D01*
X014280Y002066D01*
X014336Y001930D01*
X014440Y001826D01*
X014576Y001770D01*
X014724Y001770D01*
X014860Y001826D01*
X014964Y001930D01*
X015020Y002066D01*
X015020Y002734D01*
X014964Y002870D01*
X014860Y002974D01*
X014724Y003030D01*
X014576Y003030D01*
X014762Y003014D02*
X015538Y003014D01*
X015576Y003030D02*
X015440Y002974D01*
X015336Y002870D01*
X015280Y002734D01*
X015280Y002066D01*
X015336Y001930D01*
X015440Y001826D01*
X015576Y001770D01*
X015724Y001770D01*
X015860Y001826D01*
X015964Y001930D01*
X016020Y002066D01*
X016020Y002734D01*
X015964Y002870D01*
X015860Y002974D01*
X015724Y003030D01*
X015576Y003030D01*
X015762Y003014D02*
X016538Y003014D01*
X016576Y003030D02*
X016440Y002974D01*
X016336Y002870D01*
X016280Y002734D01*
X016280Y002066D01*
X016336Y001930D01*
X016440Y001826D01*
X016576Y001770D01*
X016724Y001770D01*
X016860Y001826D01*
X016964Y001930D01*
X017020Y002066D01*
X017020Y002734D01*
X016964Y002870D01*
X016860Y002974D01*
X016724Y003030D01*
X016576Y003030D01*
X016762Y003014D02*
X017442Y003014D01*
X017435Y003011D02*
X017383Y002973D01*
X017337Y002927D01*
X017299Y002875D01*
X017270Y002817D01*
X016985Y002817D01*
X017020Y002719D02*
X017244Y002719D01*
X017240Y002692D02*
X017240Y002430D01*
X017620Y002430D01*
X017620Y003070D01*
X017618Y003070D01*
X017554Y003060D01*
X017493Y003040D01*
X017435Y003011D01*
X017329Y002916D02*
X016918Y002916D01*
X017020Y002620D02*
X017240Y002620D01*
X017240Y002692D02*
X017250Y002756D01*
X017270Y002817D01*
X017620Y002817D02*
X017680Y002817D01*
X017680Y002719D02*
X017620Y002719D01*
X017620Y002620D02*
X017680Y002620D01*
X017680Y002522D02*
X017620Y002522D01*
X017620Y002430D02*
X017680Y002430D01*
X017680Y003070D01*
X017682Y003070D01*
X017746Y003060D01*
X017807Y003040D01*
X017865Y003011D01*
X017917Y002973D01*
X017963Y002927D01*
X018001Y002875D01*
X018030Y002817D01*
X018490Y002817D01*
X018502Y002719D02*
X018056Y002719D01*
X018060Y002692D02*
X018050Y002756D01*
X018030Y002817D01*
X017971Y002916D02*
X018870Y002916D01*
X018930Y002870D02*
X018930Y002490D01*
X019070Y002490D01*
X019310Y002730D01*
X019310Y002870D01*
X018930Y002870D01*
X018930Y002817D02*
X018870Y002817D01*
X018870Y002719D02*
X018930Y002719D01*
X018930Y002620D02*
X018870Y002620D01*
X018870Y002522D02*
X018930Y002522D01*
X019101Y002522D02*
X020105Y002522D01*
X020105Y002620D02*
X019200Y002620D01*
X019298Y002719D02*
X020105Y002719D01*
X020105Y002817D02*
X019310Y002817D01*
X018930Y003014D02*
X018870Y003014D01*
X018870Y003113D02*
X018930Y003113D01*
X018930Y003211D02*
X018870Y003211D01*
X018870Y003310D02*
X018930Y003310D01*
X018730Y003310D02*
X010070Y003310D01*
X009979Y003211D02*
X018631Y003211D01*
X018533Y003113D02*
X009813Y003113D01*
X009680Y001832D02*
X009620Y001832D01*
X009620Y001734D02*
X009680Y001734D01*
X009680Y001635D02*
X009620Y001635D01*
X009620Y001537D02*
X009680Y001537D01*
X009680Y001438D02*
X009620Y001438D01*
X009680Y001370D02*
X010150Y001370D01*
X010150Y001193D01*
X009857Y000900D01*
X009680Y000900D01*
X009680Y001370D01*
X009680Y001340D02*
X009620Y001340D01*
X009620Y001241D02*
X009680Y001241D01*
X009680Y001143D02*
X009620Y001143D01*
X009620Y001044D02*
X009680Y001044D01*
X009680Y000946D02*
X009620Y000946D01*
X009903Y000946D02*
X019135Y000946D01*
X019261Y000894D02*
X019003Y001000D01*
X018806Y001198D01*
X018699Y001455D01*
X018699Y001734D01*
X018806Y001992D01*
X019003Y002189D01*
X019261Y002296D01*
X019539Y002296D01*
X019797Y002189D01*
X019994Y001992D01*
X020101Y001734D01*
X020101Y001455D01*
X019994Y001198D01*
X019797Y001000D01*
X019539Y000894D01*
X019261Y000894D01*
X018959Y001044D02*
X010001Y001044D01*
X010100Y001143D02*
X018861Y001143D01*
X018788Y001241D02*
X010150Y001241D01*
X010150Y001340D02*
X018747Y001340D01*
X018706Y001438D02*
X010150Y001438D01*
X010150Y001537D02*
X018699Y001537D01*
X018699Y001635D02*
X010122Y001635D01*
X010024Y001734D02*
X017596Y001734D01*
X017618Y001730D02*
X017554Y001740D01*
X017493Y001760D01*
X017435Y001789D01*
X017383Y001827D01*
X017337Y001873D01*
X017299Y001925D01*
X017270Y001983D01*
X017250Y002044D01*
X017240Y002108D01*
X017240Y002370D01*
X017620Y002370D01*
X017620Y002430D01*
X017620Y002423D02*
X017020Y002423D01*
X017020Y002325D02*
X017240Y002325D01*
X017240Y002226D02*
X017020Y002226D01*
X017020Y002128D02*
X017240Y002128D01*
X017255Y002029D02*
X017005Y002029D01*
X016964Y001931D02*
X017297Y001931D01*
X017378Y001832D02*
X016865Y001832D01*
X016435Y001832D02*
X015865Y001832D01*
X015964Y001931D02*
X016336Y001931D01*
X016295Y002029D02*
X016005Y002029D01*
X016020Y002128D02*
X016280Y002128D01*
X016280Y002226D02*
X016020Y002226D01*
X016020Y002325D02*
X016280Y002325D01*
X016280Y002423D02*
X016020Y002423D01*
X016020Y002522D02*
X016280Y002522D01*
X016280Y002620D02*
X016020Y002620D01*
X016020Y002719D02*
X016280Y002719D01*
X016315Y002817D02*
X015985Y002817D01*
X015918Y002916D02*
X016382Y002916D01*
X017020Y002522D02*
X017240Y002522D01*
X017620Y002370D02*
X017680Y002370D01*
X017680Y002430D01*
X018060Y002430D01*
X018060Y002692D01*
X018060Y002620D02*
X018600Y002620D01*
X018699Y002522D02*
X018060Y002522D01*
X018060Y002370D02*
X017680Y002370D01*
X017680Y001730D01*
X017682Y001730D01*
X017746Y001740D01*
X017807Y001760D01*
X017865Y001789D01*
X017917Y001827D01*
X017963Y001873D01*
X018001Y001925D01*
X018030Y001983D01*
X018050Y002044D01*
X018060Y002108D01*
X018060Y002370D01*
X018060Y002325D02*
X020105Y002325D01*
X020105Y002423D02*
X017680Y002423D01*
X017620Y002370D02*
X017620Y001730D01*
X017618Y001730D01*
X017620Y001734D02*
X017680Y001734D01*
X017704Y001734D02*
X018699Y001734D01*
X018739Y001832D02*
X017922Y001832D01*
X018003Y001931D02*
X018780Y001931D01*
X018843Y002029D02*
X018045Y002029D01*
X018060Y002128D02*
X018941Y002128D01*
X019091Y002226D02*
X018060Y002226D01*
X017680Y002226D02*
X017620Y002226D01*
X017620Y002128D02*
X017680Y002128D01*
X017680Y002029D02*
X017620Y002029D01*
X017620Y001931D02*
X017680Y001931D01*
X017680Y001832D02*
X017620Y001832D01*
X017620Y002325D02*
X017680Y002325D01*
X017680Y002916D02*
X017620Y002916D01*
X017620Y003014D02*
X017680Y003014D01*
X017858Y003014D02*
X018490Y003014D01*
X019709Y002226D02*
X020105Y002226D01*
X020105Y002128D02*
X019859Y002128D01*
X019957Y002029D02*
X020105Y002029D01*
X020105Y001931D02*
X020020Y001931D01*
X020061Y001832D02*
X020105Y001832D01*
X020101Y001734D02*
X020105Y001734D01*
X020101Y001635D02*
X020105Y001635D01*
X020101Y001537D02*
X020105Y001537D01*
X020094Y001438D02*
X020105Y001438D01*
X020105Y001340D02*
X020053Y001340D01*
X020012Y001241D02*
X020105Y001241D01*
X020105Y001143D02*
X019939Y001143D01*
X019841Y001044D02*
X020105Y001044D01*
X020105Y000946D02*
X019665Y000946D01*
X018036Y004689D02*
X010880Y004689D01*
X010880Y004787D02*
X011535Y004787D01*
X011576Y004770D02*
X011724Y004770D01*
X011860Y004826D01*
X011964Y004930D01*
X012020Y005066D01*
X012020Y005734D01*
X011964Y005870D01*
X011860Y005974D01*
X011724Y006030D01*
X011576Y006030D01*
X011440Y005974D01*
X011336Y005870D01*
X011280Y005734D01*
X011280Y005066D01*
X011336Y004930D01*
X011440Y004826D01*
X011576Y004770D01*
X011765Y004787D02*
X012535Y004787D01*
X012576Y004770D02*
X012724Y004770D01*
X012860Y004826D01*
X012964Y004930D01*
X013020Y005066D01*
X013020Y005734D01*
X012964Y005870D01*
X012860Y005974D01*
X012762Y006014D01*
X012716Y006060D01*
X012020Y006756D01*
X012020Y007053D01*
X011803Y007270D01*
X011497Y007270D01*
X011280Y007053D01*
X011280Y006747D01*
X011497Y006530D01*
X011794Y006530D01*
X012395Y005928D01*
X012336Y005870D01*
X012280Y005734D01*
X012280Y005066D01*
X012336Y004930D01*
X012440Y004826D01*
X012576Y004770D01*
X012765Y004787D02*
X013535Y004787D01*
X013576Y004770D02*
X013724Y004770D01*
X013860Y004826D01*
X013964Y004930D01*
X014020Y005066D01*
X014020Y005734D01*
X013964Y005870D01*
X013860Y005974D01*
X013724Y006030D01*
X013576Y006030D01*
X013440Y005974D01*
X013336Y005870D01*
X013280Y005734D01*
X013280Y005066D01*
X013336Y004930D01*
X013440Y004826D01*
X013576Y004770D01*
X013765Y004787D02*
X014535Y004787D01*
X014381Y004886D02*
X013919Y004886D01*
X013986Y004984D02*
X014314Y004984D01*
X014280Y005083D02*
X014020Y005083D01*
X014020Y005181D02*
X014280Y005181D01*
X014280Y005280D02*
X014020Y005280D01*
X014020Y005378D02*
X014280Y005378D01*
X014280Y005477D02*
X014020Y005477D01*
X014020Y005575D02*
X014280Y005575D01*
X014280Y005674D02*
X014020Y005674D01*
X014004Y005772D02*
X014296Y005772D01*
X014337Y005871D02*
X013963Y005871D01*
X013864Y005969D02*
X014355Y005969D01*
X014256Y006068D02*
X012709Y006068D01*
X012610Y006166D02*
X014158Y006166D01*
X014059Y006265D02*
X012512Y006265D01*
X012413Y006363D02*
X013990Y006363D01*
X013990Y006462D02*
X012315Y006462D01*
X012216Y006560D02*
X012467Y006560D01*
X012368Y006659D02*
X012118Y006659D01*
X012020Y006757D02*
X012280Y006757D01*
X012280Y006856D02*
X012020Y006856D01*
X012020Y006954D02*
X012280Y006954D01*
X012280Y007053D02*
X012020Y007053D01*
X011922Y007151D02*
X012378Y007151D01*
X012074Y007250D02*
X011824Y007250D01*
X011976Y007348D02*
X010880Y007348D01*
X010880Y007250D02*
X011476Y007250D01*
X011378Y007151D02*
X010880Y007151D01*
X010880Y007053D02*
X011280Y007053D01*
X011280Y006954D02*
X010880Y006954D01*
X010880Y006856D02*
X011280Y006856D01*
X011280Y006757D02*
X010880Y006757D01*
X010880Y006659D02*
X011368Y006659D01*
X011467Y006560D02*
X010880Y006560D01*
X010880Y006462D02*
X011862Y006462D01*
X011961Y006363D02*
X010880Y006363D01*
X010880Y006265D02*
X012059Y006265D01*
X012158Y006166D02*
X010880Y006166D01*
X010880Y006068D02*
X012256Y006068D01*
X012355Y005969D02*
X011864Y005969D01*
X011963Y005871D02*
X012337Y005871D01*
X012296Y005772D02*
X012004Y005772D01*
X012020Y005674D02*
X012280Y005674D01*
X012280Y005575D02*
X012020Y005575D01*
X012020Y005477D02*
X012280Y005477D01*
X012280Y005378D02*
X012020Y005378D01*
X012020Y005280D02*
X012280Y005280D01*
X012280Y005181D02*
X012020Y005181D01*
X012020Y005083D02*
X012280Y005083D01*
X012314Y004984D02*
X011986Y004984D01*
X011919Y004886D02*
X012381Y004886D01*
X012919Y004886D02*
X013381Y004886D01*
X013314Y004984D02*
X012986Y004984D01*
X013020Y005083D02*
X013280Y005083D01*
X013280Y005181D02*
X013020Y005181D01*
X013020Y005280D02*
X013280Y005280D01*
X013280Y005378D02*
X013020Y005378D01*
X013020Y005477D02*
X013280Y005477D01*
X013280Y005575D02*
X013020Y005575D01*
X013020Y005674D02*
X013280Y005674D01*
X013296Y005772D02*
X013004Y005772D01*
X012963Y005871D02*
X013337Y005871D01*
X013436Y005969D02*
X012864Y005969D01*
X012650Y005900D02*
X012650Y005400D01*
X012650Y005900D02*
X011650Y006900D01*
X011877Y007447D02*
X010880Y007447D01*
X010830Y007545D02*
X011779Y007545D01*
X011680Y007644D02*
X010732Y007644D01*
X010633Y007742D02*
X011582Y007742D01*
X011483Y007841D02*
X010864Y007841D01*
X010962Y007939D02*
X011385Y007939D01*
X011640Y008136D02*
X011688Y008136D01*
X011739Y008038D02*
X011786Y008038D01*
X011837Y007939D02*
X011885Y007939D01*
X011936Y007841D02*
X011983Y007841D01*
X012034Y007742D02*
X012082Y007742D01*
X012133Y007644D02*
X014680Y007644D01*
X014779Y007545D02*
X013981Y007545D01*
X014080Y007447D02*
X014877Y007447D01*
X014976Y007348D02*
X014178Y007348D01*
X014277Y007250D02*
X014476Y007250D01*
X014378Y007151D02*
X014310Y007151D01*
X014310Y006659D02*
X014368Y006659D01*
X014310Y006560D02*
X014467Y006560D01*
X014315Y006462D02*
X014990Y006462D01*
X014990Y006560D02*
X014833Y006560D01*
X014932Y006659D02*
X014990Y006659D01*
X014990Y006363D02*
X014413Y006363D01*
X014512Y006265D02*
X015059Y006265D01*
X015158Y006166D02*
X014610Y006166D01*
X014709Y006068D02*
X015256Y006068D01*
X015355Y005969D02*
X014864Y005969D01*
X014963Y005871D02*
X015337Y005871D01*
X015296Y005772D02*
X015004Y005772D01*
X015020Y005674D02*
X015280Y005674D01*
X015280Y005575D02*
X015020Y005575D01*
X015020Y005477D02*
X015280Y005477D01*
X015310Y006560D02*
X015467Y006560D01*
X015368Y006659D02*
X015310Y006659D01*
X014990Y007151D02*
X014922Y007151D01*
X014990Y007250D02*
X014824Y007250D01*
X013990Y006659D02*
X013932Y006659D01*
X013990Y006560D02*
X013833Y006560D01*
X013467Y006560D02*
X012833Y006560D01*
X012932Y006659D02*
X013368Y006659D01*
X013280Y006757D02*
X013020Y006757D01*
X013020Y006856D02*
X013280Y006856D01*
X013280Y006954D02*
X013020Y006954D01*
X013020Y007053D02*
X013280Y007053D01*
X013378Y007151D02*
X012922Y007151D01*
X011991Y008333D02*
X011943Y008333D01*
X011589Y008235D02*
X011542Y008235D01*
X011491Y008333D02*
X010990Y008333D01*
X010892Y008432D02*
X011392Y008432D01*
X011180Y010303D02*
X011120Y010303D01*
X011120Y010402D02*
X011180Y010402D01*
X011180Y010500D02*
X011120Y010500D01*
X011120Y010599D02*
X011180Y010599D01*
X011180Y010697D02*
X011120Y010697D01*
X011120Y010796D02*
X011180Y010796D01*
X011180Y010993D02*
X011120Y010993D01*
X011120Y011091D02*
X011180Y011091D01*
X011180Y011190D02*
X011120Y011190D01*
X011120Y011288D02*
X011180Y011288D01*
X011180Y011387D02*
X011120Y011387D01*
X011120Y011485D02*
X011180Y011485D01*
X011400Y011485D02*
X011490Y011485D01*
X011810Y011485D02*
X011968Y011485D01*
X011853Y011387D02*
X011810Y011387D01*
X011810Y011584D02*
X012490Y011584D01*
X012490Y011682D02*
X011810Y011682D01*
X011810Y011781D02*
X012490Y011781D01*
X012445Y011879D02*
X011810Y011879D01*
X011810Y011978D02*
X012346Y011978D01*
X012248Y012076D02*
X011810Y012076D01*
X011810Y012175D02*
X012240Y012175D01*
X012240Y012273D02*
X011810Y012273D01*
X011810Y012372D02*
X012240Y012372D01*
X012240Y012470D02*
X011810Y012470D01*
X011810Y012569D02*
X012240Y012569D01*
X012240Y012667D02*
X011810Y012667D01*
X011810Y012766D02*
X012240Y012766D01*
X012240Y012864D02*
X011810Y012864D01*
X011810Y012963D02*
X012240Y012963D01*
X012240Y013061D02*
X011810Y013061D01*
X011810Y013160D02*
X012240Y013160D01*
X012282Y013258D02*
X011810Y013258D01*
X011810Y013357D02*
X012380Y013357D01*
X012479Y013455D02*
X011810Y013455D01*
X011810Y013554D02*
X012553Y013554D01*
X012619Y013652D02*
X011810Y013652D01*
X012332Y011485D02*
X012490Y011485D01*
X012490Y011387D02*
X012447Y011387D01*
X013810Y010402D02*
X013865Y010402D01*
X013810Y010303D02*
X013997Y010303D01*
X013869Y010205D02*
X014431Y010205D01*
X014490Y010303D02*
X014303Y010303D01*
X014435Y010402D02*
X014490Y010402D01*
X014333Y010106D02*
X013967Y010106D01*
X014020Y010008D02*
X014280Y010008D01*
X014280Y009909D02*
X014020Y009909D01*
X014020Y009811D02*
X014280Y009811D01*
X014315Y009712D02*
X013985Y009712D01*
X013887Y009614D02*
X014413Y009614D01*
X014650Y009900D02*
X014650Y011900D01*
X015810Y011781D02*
X016490Y011781D01*
X016490Y011682D02*
X015810Y011682D01*
X015810Y011584D02*
X016490Y011584D01*
X016490Y011485D02*
X016332Y011485D01*
X016447Y011387D02*
X016490Y011387D01*
X016445Y011879D02*
X015855Y011879D01*
X015954Y011978D02*
X016346Y011978D01*
X016248Y012076D02*
X016052Y012076D01*
X016060Y012175D02*
X016240Y012175D01*
X016240Y012273D02*
X016060Y012273D01*
X016060Y012372D02*
X016240Y012372D01*
X016240Y012470D02*
X016060Y012470D01*
X016060Y012569D02*
X016240Y012569D01*
X016240Y012667D02*
X016060Y012667D01*
X016060Y012766D02*
X016240Y012766D01*
X016240Y012864D02*
X016060Y012864D01*
X016060Y012963D02*
X016240Y012963D01*
X016240Y013061D02*
X016060Y013061D01*
X016060Y013160D02*
X016240Y013160D01*
X016282Y013258D02*
X016060Y013258D01*
X016060Y013357D02*
X016380Y013357D01*
X016479Y013455D02*
X016060Y013455D01*
X016060Y013554D02*
X016553Y013554D01*
X016619Y013652D02*
X016060Y013652D01*
X016060Y013751D02*
X016769Y013751D01*
X016778Y014046D02*
X016060Y014046D01*
X016060Y013948D02*
X017740Y013948D01*
X017740Y014046D02*
X017522Y014046D01*
X017678Y014145D02*
X017740Y014145D01*
X018060Y014145D02*
X018622Y014145D01*
X018576Y014190D02*
X018680Y014086D01*
X018816Y014030D01*
X019484Y014030D01*
X019620Y014086D01*
X019724Y014190D01*
X019780Y014326D01*
X019780Y014474D01*
X019724Y014610D01*
X019620Y014714D01*
X019484Y014770D01*
X018816Y014770D01*
X018680Y014714D01*
X018576Y014610D01*
X018520Y014474D01*
X018520Y014326D01*
X018576Y014190D01*
X018555Y014243D02*
X018060Y014243D01*
X018060Y014342D02*
X018520Y014342D01*
X018520Y014440D02*
X018060Y014440D01*
X018060Y014539D02*
X018547Y014539D01*
X018604Y014637D02*
X018060Y014637D01*
X018041Y014736D02*
X018733Y014736D01*
X018486Y015031D02*
X020105Y015031D01*
X020105Y014933D02*
X017844Y014933D01*
X017814Y015031D02*
X017745Y015031D01*
X017942Y014834D02*
X020105Y014834D01*
X020105Y014736D02*
X019567Y014736D01*
X019696Y014637D02*
X020105Y014637D01*
X020105Y014539D02*
X019753Y014539D01*
X019780Y014440D02*
X020105Y014440D01*
X020105Y014342D02*
X019780Y014342D01*
X019745Y014243D02*
X020105Y014243D01*
X020105Y014145D02*
X019678Y014145D01*
X019522Y014046D02*
X020105Y014046D01*
X020105Y013948D02*
X018060Y013948D01*
X018060Y014046D02*
X018778Y014046D01*
X018769Y013751D02*
X018060Y013751D01*
X018060Y013849D02*
X020105Y013849D01*
X020105Y013751D02*
X019531Y013751D01*
X019681Y013652D02*
X020105Y013652D01*
X020105Y013554D02*
X019747Y013554D01*
X019780Y013455D02*
X020105Y013455D01*
X020105Y013357D02*
X019780Y013357D01*
X019752Y013258D02*
X020105Y013258D01*
X020105Y013160D02*
X019693Y013160D01*
X019559Y013061D02*
X020105Y013061D01*
X020105Y012963D02*
X018560Y012963D01*
X018560Y013061D02*
X018741Y013061D01*
X018560Y012864D02*
X020105Y012864D01*
X020105Y012766D02*
X019494Y012766D01*
X019666Y012667D02*
X020105Y012667D01*
X020105Y012569D02*
X019741Y012569D01*
X019780Y012470D02*
X020105Y012470D01*
X020105Y012372D02*
X019780Y012372D01*
X019758Y012273D02*
X020105Y012273D01*
X020105Y012175D02*
X019708Y012175D01*
X019595Y012076D02*
X020105Y012076D01*
X020105Y011978D02*
X018799Y011978D01*
X018810Y011879D02*
X020105Y011879D01*
X020105Y011781D02*
X018810Y011781D01*
X018810Y011682D02*
X020105Y011682D01*
X020105Y011584D02*
X018810Y011584D01*
X018810Y011485D02*
X018968Y011485D01*
X018853Y011387D02*
X018810Y011387D01*
X018490Y011387D02*
X018447Y011387D01*
X018490Y011485D02*
X018332Y011485D01*
X018490Y011584D02*
X017810Y011584D01*
X017810Y011682D02*
X018490Y011682D01*
X018490Y011781D02*
X017810Y011781D01*
X017855Y011879D02*
X018445Y011879D01*
X018346Y011978D02*
X017954Y011978D01*
X018052Y012076D02*
X018248Y012076D01*
X018240Y012175D02*
X018060Y012175D01*
X018060Y012273D02*
X018240Y012273D01*
X018240Y012372D02*
X018060Y012372D01*
X018060Y012470D02*
X018240Y012470D01*
X018240Y012569D02*
X018060Y012569D01*
X018060Y012667D02*
X018240Y012667D01*
X018240Y012766D02*
X018060Y012766D01*
X018060Y012864D02*
X018240Y012864D01*
X018240Y012963D02*
X018060Y012963D01*
X018060Y013061D02*
X018240Y013061D01*
X018240Y013160D02*
X018060Y013160D01*
X018060Y013258D02*
X018282Y013258D01*
X018380Y013357D02*
X018060Y013357D01*
X018060Y013455D02*
X018479Y013455D01*
X018553Y013554D02*
X018060Y013554D01*
X018060Y013652D02*
X018619Y013652D01*
X018650Y013400D02*
X019150Y013400D01*
X018650Y013400D02*
X018400Y013150D01*
X018400Y012150D01*
X018650Y011900D01*
X018650Y009900D01*
X018869Y010205D02*
X020105Y010205D01*
X020105Y010303D02*
X019303Y010303D01*
X019435Y010402D02*
X020105Y010402D01*
X020105Y010500D02*
X019493Y010500D01*
X019520Y010599D02*
X020105Y010599D01*
X020105Y010697D02*
X019520Y010697D01*
X019520Y010796D02*
X020105Y010796D01*
X020105Y010894D02*
X019520Y010894D01*
X019520Y010993D02*
X020105Y010993D01*
X020105Y011091D02*
X019520Y011091D01*
X019520Y011190D02*
X020105Y011190D01*
X020105Y011288D02*
X019497Y011288D01*
X019447Y011387D02*
X020105Y011387D01*
X020105Y011485D02*
X019332Y011485D01*
X018705Y012076D02*
X018700Y012076D01*
X018634Y012667D02*
X018560Y012667D01*
X018560Y012766D02*
X018806Y012766D01*
X017740Y013652D02*
X017681Y013652D01*
X017740Y013751D02*
X017531Y013751D01*
X017740Y013849D02*
X016060Y013849D01*
X016650Y013400D02*
X016400Y013150D01*
X016400Y012150D01*
X016650Y011900D01*
X016650Y009900D01*
X017303Y010303D02*
X017490Y010303D01*
X017490Y010402D02*
X017435Y010402D01*
X017810Y010402D02*
X017865Y010402D01*
X017810Y010303D02*
X017997Y010303D01*
X017869Y010205D02*
X018431Y010205D01*
X018490Y010303D02*
X018303Y010303D01*
X018435Y010402D02*
X018490Y010402D01*
X018333Y010106D02*
X017967Y010106D01*
X018020Y010008D02*
X018280Y010008D01*
X018280Y009909D02*
X018020Y009909D01*
X018020Y009811D02*
X018280Y009811D01*
X018315Y009712D02*
X017985Y009712D01*
X017887Y009614D02*
X018413Y009614D01*
X018887Y009614D02*
X020105Y009614D01*
X020105Y009712D02*
X018985Y009712D01*
X019020Y009811D02*
X020105Y009811D01*
X020105Y009909D02*
X019020Y009909D01*
X019020Y010008D02*
X020105Y010008D01*
X020105Y010106D02*
X018967Y010106D01*
X018997Y010303D02*
X018810Y010303D01*
X018810Y010402D02*
X018865Y010402D01*
X017853Y011387D02*
X017810Y011387D01*
X017810Y011485D02*
X017968Y011485D01*
X017150Y013400D02*
X016650Y013400D01*
X015942Y014834D02*
X017490Y014834D01*
X017567Y014736D02*
X017588Y014736D01*
X017391Y014933D02*
X015844Y014933D01*
X015814Y015031D02*
X015745Y015031D01*
X015588Y014736D02*
X015567Y014736D01*
X017400Y016150D02*
X017650Y016400D01*
X018150Y016400D01*
X018628Y016706D02*
X020105Y016706D01*
X020105Y016804D02*
X010371Y016804D01*
X010338Y016903D02*
X020105Y016903D01*
X020105Y017001D02*
X010278Y017001D01*
X010251Y017986D02*
X010913Y017986D01*
X010815Y018085D02*
X010340Y018085D01*
X010388Y018183D02*
X010716Y018183D01*
X010690Y018282D02*
X010410Y018282D01*
X010407Y018380D02*
X010690Y018380D01*
X010690Y018479D02*
X010382Y018479D01*
X010326Y018577D02*
X010690Y018577D01*
X010775Y018676D02*
X010225Y018676D01*
X011591Y016115D02*
X011652Y016115D01*
X011560Y016016D02*
X013240Y016016D01*
X013240Y015918D02*
X011560Y015918D01*
X013591Y016115D02*
X013652Y016115D01*
X016387Y017986D02*
X016913Y017986D01*
X016815Y018085D02*
X016485Y018085D01*
X016584Y018183D02*
X016716Y018183D01*
X016690Y018282D02*
X016610Y018282D01*
X016610Y018380D02*
X016690Y018380D01*
X016690Y018479D02*
X016610Y018479D01*
X016610Y018577D02*
X016690Y018577D01*
X016775Y018676D02*
X016525Y018676D01*
X016426Y018774D02*
X016874Y018774D01*
X017426Y018774D02*
X017874Y018774D01*
X017775Y018676D02*
X017525Y018676D01*
X017610Y018577D02*
X017690Y018577D01*
X017690Y018479D02*
X017610Y018479D01*
X017610Y018380D02*
X017690Y018380D01*
X017690Y018282D02*
X017610Y018282D01*
X017584Y018183D02*
X017716Y018183D01*
X017815Y018085D02*
X017485Y018085D01*
X017387Y017986D02*
X017913Y017986D01*
X017657Y017691D02*
X016643Y017691D01*
X016731Y017592D02*
X017569Y017592D01*
X017528Y017494D02*
X016772Y017494D01*
X016780Y017395D02*
X017520Y017395D01*
X017532Y017297D02*
X016768Y017297D01*
X016727Y017198D02*
X017573Y017198D01*
X017667Y017100D02*
X016633Y017100D01*
X017591Y016115D02*
X017652Y016115D01*
X017560Y016016D02*
X020105Y016016D01*
X020105Y015918D02*
X017560Y015918D01*
X017560Y015819D02*
X020105Y015819D01*
X020105Y015721D02*
X018603Y015721D01*
X018711Y015622D02*
X020105Y015622D01*
X020105Y015524D02*
X018759Y015524D01*
X018780Y015425D02*
X020105Y015425D01*
X020105Y015327D02*
X018780Y015327D01*
X018739Y015228D02*
X020105Y015228D01*
X020105Y015130D02*
X018663Y015130D01*
X017697Y015721D02*
X017560Y015721D01*
X017560Y015622D02*
X017589Y015622D01*
X018648Y016115D02*
X020105Y016115D01*
X020105Y016213D02*
X018733Y016213D01*
X018774Y016312D02*
X020105Y016312D01*
X020105Y016410D02*
X018780Y016410D01*
X018766Y016509D02*
X020105Y016509D01*
X020105Y016607D02*
X018725Y016607D01*
X018633Y017100D02*
X020105Y017100D01*
X020105Y017198D02*
X018727Y017198D01*
X018768Y017297D02*
X020105Y017297D01*
X020105Y017395D02*
X018780Y017395D01*
X018772Y017494D02*
X020105Y017494D01*
X020105Y017592D02*
X018731Y017592D01*
X015968Y011485D02*
X015810Y011485D01*
X015810Y011387D02*
X015853Y011387D01*
X015490Y010402D02*
X015435Y010402D01*
X015490Y010303D02*
X015303Y010303D01*
X015431Y010205D02*
X014869Y010205D01*
X014810Y010303D02*
X014997Y010303D01*
X014865Y010402D02*
X014810Y010402D01*
X014967Y010106D02*
X015333Y010106D01*
X015280Y010008D02*
X015020Y010008D01*
X015020Y009909D02*
X015280Y009909D01*
X015280Y009811D02*
X015020Y009811D01*
X014985Y009712D02*
X015315Y009712D01*
X015413Y009614D02*
X014887Y009614D01*
X017824Y007250D02*
X018476Y007250D01*
X018378Y007151D02*
X017922Y007151D01*
X018020Y007053D02*
X018280Y007053D01*
X018280Y006954D02*
X018020Y006954D01*
X018020Y006856D02*
X018280Y006856D01*
X018280Y006757D02*
X018020Y006757D01*
X017932Y006659D02*
X018368Y006659D01*
X018467Y006560D02*
X017833Y006560D01*
X017765Y004787D02*
X017938Y004787D01*
X015382Y002916D02*
X014918Y002916D01*
X014985Y002817D02*
X015315Y002817D01*
X015280Y002719D02*
X015020Y002719D01*
X015020Y002620D02*
X015280Y002620D01*
X015280Y002522D02*
X015020Y002522D01*
X015020Y002423D02*
X015280Y002423D01*
X015280Y002325D02*
X015020Y002325D01*
X015020Y002226D02*
X015280Y002226D01*
X015280Y002128D02*
X015020Y002128D01*
X015005Y002029D02*
X015295Y002029D01*
X015336Y001931D02*
X014964Y001931D01*
X014865Y001832D02*
X015435Y001832D01*
X014435Y001832D02*
X013865Y001832D01*
X013964Y001931D02*
X014336Y001931D01*
X014295Y002029D02*
X014005Y002029D01*
X014020Y002128D02*
X014280Y002128D01*
X014280Y002226D02*
X014020Y002226D01*
X014020Y002325D02*
X014280Y002325D01*
X014280Y002423D02*
X014020Y002423D01*
X014020Y002522D02*
X014280Y002522D01*
X014280Y002620D02*
X014020Y002620D01*
X014020Y002719D02*
X014280Y002719D01*
X014315Y002817D02*
X013985Y002817D01*
X013918Y002916D02*
X014382Y002916D01*
X013382Y002916D02*
X012918Y002916D01*
X012985Y002817D02*
X013315Y002817D01*
X013280Y002719D02*
X013020Y002719D01*
X013020Y002620D02*
X013280Y002620D01*
X013280Y002522D02*
X013020Y002522D01*
X013020Y002423D02*
X013280Y002423D01*
X013280Y002325D02*
X013020Y002325D01*
X013020Y002226D02*
X013280Y002226D01*
X013280Y002128D02*
X013020Y002128D01*
X013005Y002029D02*
X013295Y002029D01*
X013336Y001931D02*
X012964Y001931D01*
X012865Y001832D02*
X013435Y001832D01*
X012435Y001832D02*
X011865Y001832D01*
X011964Y001931D02*
X012336Y001931D01*
X012295Y002029D02*
X012005Y002029D01*
X012020Y002128D02*
X012280Y002128D01*
X012280Y002226D02*
X012020Y002226D01*
X012020Y002325D02*
X012280Y002325D01*
X012280Y002423D02*
X012020Y002423D01*
X012020Y002522D02*
X012280Y002522D01*
X012280Y002620D02*
X012020Y002620D01*
X012020Y002719D02*
X012280Y002719D01*
X012315Y002817D02*
X011985Y002817D01*
X011918Y002916D02*
X012382Y002916D01*
X010420Y004590D02*
X006260Y004590D01*
X006402Y004689D02*
X010420Y004689D01*
X010420Y004787D02*
X006461Y004787D01*
X006486Y004886D02*
X010420Y004886D01*
X010420Y004984D02*
X006486Y004984D01*
X006445Y005083D02*
X010420Y005083D01*
X010420Y005181D02*
X006364Y005181D01*
X005540Y004590D02*
X002554Y004590D01*
X002997Y004984D02*
X001859Y004984D01*
X001944Y005083D02*
X002899Y005083D01*
X002849Y005181D02*
X001995Y005181D01*
X001510Y005370D02*
X001510Y007930D01*
X001560Y007939D02*
X002810Y007939D01*
X002810Y007841D02*
X002022Y007841D01*
X002017Y007808D02*
X002029Y007880D01*
X001560Y007880D01*
X001560Y007411D01*
X001632Y007423D01*
X001710Y007448D01*
X001783Y007485D01*
X001849Y007533D01*
X001907Y007591D01*
X001955Y007657D01*
X001992Y007730D01*
X002017Y007808D01*
X001996Y007742D02*
X002848Y007742D01*
X002898Y007644D02*
X001945Y007644D01*
X001860Y007545D02*
X002996Y007545D01*
X003130Y007447D02*
X001705Y007447D01*
X001560Y007447D02*
X001460Y007447D01*
X001460Y007545D02*
X001560Y007545D01*
X001560Y007644D02*
X001460Y007644D01*
X001460Y007742D02*
X001560Y007742D01*
X001560Y007841D02*
X001460Y007841D01*
X001460Y007939D02*
X000880Y007939D01*
X000880Y007841D02*
X000998Y007841D01*
X001024Y007742D02*
X000880Y007742D01*
X000880Y007644D02*
X001075Y007644D01*
X001160Y007545D02*
X000880Y007545D01*
X000880Y007447D02*
X001315Y007447D01*
X000880Y007348D02*
X003130Y007348D01*
X003130Y007250D02*
X000880Y007250D01*
X000880Y007151D02*
X003130Y007151D01*
X003130Y007053D02*
X000880Y007053D01*
X000880Y006954D02*
X003130Y006954D01*
X003130Y006856D02*
X000880Y006856D01*
X000880Y006757D02*
X003130Y006757D01*
X003130Y006659D02*
X000880Y006659D01*
X000880Y006560D02*
X003130Y006560D01*
X003130Y006462D02*
X000880Y006462D01*
X000880Y006363D02*
X003130Y006363D01*
X003130Y006265D02*
X000880Y006265D01*
X000880Y006166D02*
X003130Y006166D01*
X003130Y006068D02*
X000880Y006068D01*
X000880Y005969D02*
X003130Y005969D01*
X003130Y005871D02*
X001652Y005871D01*
X001560Y005871D02*
X001460Y005871D01*
X001368Y005871D02*
X000880Y005871D01*
X000880Y005772D02*
X001179Y005772D01*
X001088Y005674D02*
X000880Y005674D01*
X000880Y005575D02*
X001031Y005575D01*
X001000Y005477D02*
X000880Y005477D01*
X001460Y005477D02*
X001560Y005477D01*
X001560Y005575D02*
X001460Y005575D01*
X001460Y005674D02*
X001560Y005674D01*
X001560Y005772D02*
X001460Y005772D01*
X001841Y005772D02*
X003013Y005772D01*
X002815Y008038D02*
X002019Y008038D01*
X001989Y008136D02*
X002856Y008136D01*
X002916Y008235D02*
X001932Y008235D01*
X001840Y008333D02*
X003014Y008333D01*
X002841Y009318D02*
X003459Y009318D01*
X003360Y009417D02*
X002940Y009417D01*
X003020Y009515D02*
X003280Y009515D01*
X003280Y009614D02*
X003020Y009614D01*
X003020Y009712D02*
X003280Y009712D01*
X003287Y009811D02*
X003013Y009811D01*
X002914Y009909D02*
X003386Y009909D01*
X003484Y010008D02*
X002816Y010008D01*
X001560Y008333D02*
X001460Y008333D01*
X001460Y008235D02*
X001560Y008235D01*
X001560Y008136D02*
X001460Y008136D01*
X001460Y008038D02*
X001560Y008038D01*
X001180Y008333D02*
X000880Y008333D01*
X000880Y008235D02*
X001088Y008235D01*
X001031Y008136D02*
X000880Y008136D01*
X000880Y008038D02*
X001001Y008038D01*
X010880Y005969D02*
X011436Y005969D01*
X011337Y005871D02*
X010880Y005871D01*
X010880Y005772D02*
X011296Y005772D01*
X011280Y005674D02*
X010880Y005674D01*
X010880Y005575D02*
X011280Y005575D01*
X011280Y005477D02*
X010880Y005477D01*
X010880Y005378D02*
X011280Y005378D01*
X011280Y005280D02*
X010880Y005280D01*
X010880Y005181D02*
X011280Y005181D01*
X011280Y005083D02*
X010880Y005083D01*
X010880Y004984D02*
X011314Y004984D01*
X011381Y004886D02*
X010880Y004886D01*
D24*
X010650Y004400D02*
X010650Y007400D01*
X008650Y009400D01*
X008650Y011400D01*
X008650Y012650D02*
X005150Y009150D01*
X001510Y009150D01*
X009650Y003575D02*
X009725Y003650D01*
X009900Y003650D01*
X010650Y004400D01*
X018400Y004400D01*
X018900Y004900D01*
X018150Y004900D01*
X017650Y005400D01*
X008400Y017150D02*
X008650Y017400D01*
X008650Y017900D01*
M02*
