%
M48
M72
T01C0.0197
T02C0.0276
T03C0.0320
T04C0.0394
T05C0.0400
T06C0.0440
T07C0.1102
%
T01
X3150Y1150
X1150Y3650
X5650Y3650
X8650Y5150
X10650Y3400
X11650Y1150
X13650Y1150
X15650Y1150
X17650Y1150
X19650Y3650
X19650Y6150
X19650Y8650
X12400Y15150
X12400Y17150
X7650Y18150
X7650Y15650
X7650Y13650
X7650Y11650
X7650Y9650
X8150Y7400
X9900Y9150
X11400Y12150
X2650Y18150
X1650Y9150
T02
X1319Y11235
X1319Y12022
X1319Y12809
X1319Y13597
X1319Y14384
X1319Y15172
X1319Y15959
X1319Y16746
X1319Y17534
X1319Y18321
X9981Y18321
X9981Y17534
X9981Y16746
X9981Y15959
X9981Y15172
X9981Y14384
X9981Y13597
X9981Y12809
X9981Y12022
X9981Y11235
X5900Y6884
X5900Y4916
T03
X7400Y3650
X8150Y3150
X8150Y4150
X6650Y2400
X6650Y1400
X4650Y1400
X4650Y3400
X9650Y2400
X9650Y1400
X11650Y2400
X12650Y2400
X13650Y2400
X14650Y2400
X15650Y2400
X16650Y2400
X17650Y2400
X18900Y2900
X18900Y4900
X17650Y5400
X16650Y5400
X15650Y5400
X14650Y5400
X13650Y5400
X12650Y5400
X11650Y5400
X11650Y6900
X12650Y6900
X13650Y6900
X14650Y6900
X15650Y6900
X16650Y6900
X17650Y6900
X18650Y6900
X18650Y9900
X18650Y10900
X17650Y10900
X16650Y10900
X16650Y9900
X17650Y9900
X15650Y9900
X15650Y10900
X14650Y10900
X14650Y9900
X13650Y9900
X13650Y10900
X12650Y10900
X11650Y10900
X11650Y9900
X12650Y9900
X10650Y8150
X7650Y8150
X8650Y11400
X8650Y13400
X12650Y13150
X12650Y12150
X12650Y14150
X13650Y15150
X13650Y16150
X13650Y17150
X15650Y17150
X15650Y16150
X15650Y15150
X14650Y14150
X14650Y13150
X14650Y12150
X16650Y12150
X16650Y13150
X16650Y14150
X17650Y15150
X17650Y16150
X17650Y17150
X19400Y17150
X19400Y16150
X19400Y15150
X18650Y14150
X18650Y13150
X18650Y12150
X19650Y10900
X3650Y9650
X2650Y9650
X2650Y12650
X3650Y12650
X3650Y14150
X2650Y14150
X2650Y17150
X3650Y17150
T04
X2400Y4069
X2400Y2691
T05
X1510Y5370
X3290Y5370
X3290Y7930
X1510Y7930
X11150Y18400
X12150Y18400
X13150Y18400
X14150Y18400
X15150Y18400
X16150Y18400
X17150Y18400
X18150Y18400
X19150Y18400
T06
X9650Y6725
X9650Y3575
T07
X1650Y1595
X19400Y1595
M30
