G75*
G70*
%OFA0B0*%
%FSLAX24Y24*%
%IPPOS*%
%LPD*%
%AMOC8*
5,1,8,0,0,1.08239X$1,22.5*
%
%ADD10C,0.0160*%
%ADD11C,0.0000*%
%ADD12C,0.1142*%
%ADD13C,0.0560*%
%ADD14OC8,0.0560*%
%ADD15OC8,0.0740*%
%ADD16C,0.0740*%
%ADD17C,0.0516*%
%ADD18OC8,0.0700*%
%ADD19C,0.0800*%
%ADD20C,0.0600*%
%ADD21R,0.0600X0.0600*%
%ADD22C,0.0900*%
%ADD23C,0.0780*%
D10*
X000650Y000650D02*
X020335Y000650D01*
X020335Y019085D01*
X000650Y019085D01*
X000650Y000650D01*
D11*
X001099Y001595D02*
X001101Y001642D01*
X001107Y001688D01*
X001117Y001734D01*
X001130Y001779D01*
X001148Y001822D01*
X001169Y001864D01*
X001193Y001904D01*
X001221Y001941D01*
X001252Y001976D01*
X001286Y002009D01*
X001322Y002038D01*
X001361Y002064D01*
X001402Y002087D01*
X001445Y002106D01*
X001489Y002122D01*
X001534Y002134D01*
X001580Y002142D01*
X001627Y002146D01*
X001673Y002146D01*
X001720Y002142D01*
X001766Y002134D01*
X001811Y002122D01*
X001855Y002106D01*
X001898Y002087D01*
X001939Y002064D01*
X001978Y002038D01*
X002014Y002009D01*
X002048Y001976D01*
X002079Y001941D01*
X002107Y001904D01*
X002131Y001864D01*
X002152Y001822D01*
X002170Y001779D01*
X002183Y001734D01*
X002193Y001688D01*
X002199Y001642D01*
X002201Y001595D01*
X002199Y001548D01*
X002193Y001502D01*
X002183Y001456D01*
X002170Y001411D01*
X002152Y001368D01*
X002131Y001326D01*
X002107Y001286D01*
X002079Y001249D01*
X002048Y001214D01*
X002014Y001181D01*
X001978Y001152D01*
X001939Y001126D01*
X001898Y001103D01*
X001855Y001084D01*
X001811Y001068D01*
X001766Y001056D01*
X001720Y001048D01*
X001673Y001044D01*
X001627Y001044D01*
X001580Y001048D01*
X001534Y001056D01*
X001489Y001068D01*
X001445Y001084D01*
X001402Y001103D01*
X001361Y001126D01*
X001322Y001152D01*
X001286Y001181D01*
X001252Y001214D01*
X001221Y001249D01*
X001193Y001286D01*
X001169Y001326D01*
X001148Y001368D01*
X001130Y001411D01*
X001117Y001456D01*
X001107Y001502D01*
X001101Y001548D01*
X001099Y001595D01*
X018849Y001595D02*
X018851Y001642D01*
X018857Y001688D01*
X018867Y001734D01*
X018880Y001779D01*
X018898Y001822D01*
X018919Y001864D01*
X018943Y001904D01*
X018971Y001941D01*
X019002Y001976D01*
X019036Y002009D01*
X019072Y002038D01*
X019111Y002064D01*
X019152Y002087D01*
X019195Y002106D01*
X019239Y002122D01*
X019284Y002134D01*
X019330Y002142D01*
X019377Y002146D01*
X019423Y002146D01*
X019470Y002142D01*
X019516Y002134D01*
X019561Y002122D01*
X019605Y002106D01*
X019648Y002087D01*
X019689Y002064D01*
X019728Y002038D01*
X019764Y002009D01*
X019798Y001976D01*
X019829Y001941D01*
X019857Y001904D01*
X019881Y001864D01*
X019902Y001822D01*
X019920Y001779D01*
X019933Y001734D01*
X019943Y001688D01*
X019949Y001642D01*
X019951Y001595D01*
X019949Y001548D01*
X019943Y001502D01*
X019933Y001456D01*
X019920Y001411D01*
X019902Y001368D01*
X019881Y001326D01*
X019857Y001286D01*
X019829Y001249D01*
X019798Y001214D01*
X019764Y001181D01*
X019728Y001152D01*
X019689Y001126D01*
X019648Y001103D01*
X019605Y001084D01*
X019561Y001068D01*
X019516Y001056D01*
X019470Y001048D01*
X019423Y001044D01*
X019377Y001044D01*
X019330Y001048D01*
X019284Y001056D01*
X019239Y001068D01*
X019195Y001084D01*
X019152Y001103D01*
X019111Y001126D01*
X019072Y001152D01*
X019036Y001181D01*
X019002Y001214D01*
X018971Y001249D01*
X018943Y001286D01*
X018919Y001326D01*
X018898Y001368D01*
X018880Y001411D01*
X018867Y001456D01*
X018857Y001502D01*
X018851Y001548D01*
X018849Y001595D01*
D12*
X019400Y001595D03*
X001650Y001595D03*
D13*
X011150Y010640D02*
X011150Y011160D01*
X012150Y011160D02*
X012150Y010640D01*
X013150Y010640D02*
X013150Y011160D01*
X014150Y011160D02*
X014150Y010640D01*
X015150Y010640D02*
X015150Y011160D01*
X016150Y011160D02*
X016150Y010640D01*
X017150Y010640D02*
X017150Y011160D01*
X018150Y011160D02*
X018150Y010640D01*
X019150Y010640D02*
X019150Y011160D01*
X019410Y012400D02*
X018890Y012400D01*
X018890Y013400D02*
X019410Y013400D01*
X019410Y014400D02*
X018890Y014400D01*
X018410Y015400D02*
X017890Y015400D01*
X017890Y016400D02*
X018410Y016400D01*
X018410Y017400D02*
X017890Y017400D01*
X016410Y017400D02*
X015890Y017400D01*
X015890Y016400D02*
X016410Y016400D01*
X016410Y015400D02*
X015890Y015400D01*
X015410Y014400D02*
X014890Y014400D01*
X014890Y013400D02*
X015410Y013400D01*
X015410Y012400D02*
X014890Y012400D01*
X013410Y012400D02*
X012890Y012400D01*
X012890Y013400D02*
X013410Y013400D01*
X013410Y014400D02*
X012890Y014400D01*
X012410Y015400D02*
X011890Y015400D01*
X011890Y016400D02*
X012410Y016400D01*
X012410Y017400D02*
X011890Y017400D01*
X013890Y017400D02*
X014410Y017400D01*
X014410Y016400D02*
X013890Y016400D01*
X013890Y015400D02*
X014410Y015400D01*
X016890Y014400D02*
X017410Y014400D01*
X017410Y013400D02*
X016890Y013400D01*
X016890Y012400D02*
X017410Y012400D01*
X017650Y005660D02*
X017650Y005140D01*
X016650Y005140D02*
X016650Y005660D01*
X015650Y005660D02*
X015650Y005140D01*
X014650Y005140D02*
X014650Y005660D01*
X013650Y005660D02*
X013650Y005140D01*
X012650Y005140D02*
X012650Y005660D01*
X011650Y005660D02*
X011650Y005140D01*
X011650Y002660D02*
X011650Y002140D01*
X012650Y002140D02*
X012650Y002660D01*
X013650Y002660D02*
X013650Y002140D01*
X014650Y002140D02*
X014650Y002660D01*
X015650Y002660D02*
X015650Y002140D01*
X016650Y002140D02*
X016650Y002660D01*
X017650Y002660D02*
X017650Y002140D01*
D14*
X018900Y002900D03*
X018900Y004900D03*
X018650Y006900D03*
X017650Y006900D03*
X016650Y006900D03*
X015650Y006900D03*
X014650Y006900D03*
X013650Y006900D03*
X012650Y006900D03*
X011650Y006900D03*
X010650Y008150D03*
X011650Y009900D03*
X012650Y009900D03*
X013650Y009900D03*
X014650Y009900D03*
X015650Y009900D03*
X016650Y009900D03*
X017650Y009900D03*
X018650Y009900D03*
X008650Y011400D03*
X008650Y013400D03*
X003650Y012650D03*
X002650Y012650D03*
X002650Y014150D03*
X003650Y014150D03*
X003650Y017150D03*
X002650Y017150D03*
X002650Y009650D03*
X003650Y009650D03*
X007650Y008150D03*
X004650Y003400D03*
X004650Y001400D03*
D15*
X006650Y001400D03*
X009650Y001400D03*
X011150Y018400D03*
X012150Y018400D03*
X013150Y018400D03*
X014150Y018400D03*
X015150Y018400D03*
X016150Y018400D03*
X017150Y018400D03*
X018150Y018400D03*
X019150Y018400D03*
D16*
X009650Y002400D03*
X006650Y002400D03*
D17*
X006138Y004916D02*
X005662Y004916D01*
X005662Y006884D02*
X006138Y006884D01*
D18*
X008150Y004150D03*
X007400Y003650D03*
X008150Y003150D03*
D19*
X009650Y003575D03*
X009650Y006725D03*
D20*
X009981Y012022D03*
X009981Y012809D03*
X009981Y013597D03*
X009981Y014384D03*
X009981Y015172D03*
X009981Y015959D03*
X009981Y016746D03*
X009981Y017534D03*
X009981Y018321D03*
X001319Y018321D03*
X001319Y017534D03*
X001319Y016746D03*
X001319Y015959D03*
X001319Y015172D03*
X001319Y014384D03*
X001319Y013597D03*
X001319Y012809D03*
X001319Y012022D03*
X001319Y011235D03*
D21*
X009981Y011235D03*
D22*
X002400Y004069D03*
X002400Y002691D03*
D23*
X001510Y005370D03*
X003290Y005370D03*
X003290Y007930D03*
X001510Y007930D03*
M02*
